<?xml version="1.0" encoding="UTF-8"?><svg xmlns="http://www.w3.org/2000/svg" xmlns:xlink="http://www.w3.org/1999/xlink" viewBox="0 0 384.8 416.19"><defs><style>.cls-1{fill:url(#linear-gradient-2);}.cls-2{fill:#fff;}.cls-3{fill:url(#linear-gradient-4);}.cls-4{fill:url(#linear-gradient-3);}.cls-5{isolation:isolate;}.cls-6{fill:url(#New_Gradient_Swatch_1-2);}.cls-7,.cls-8,.cls-9{mix-blend-mode:screen;}.cls-8{fill:url(#New_Gradient_Swatch_1-3);}.cls-10{fill:url(#linear-gradient);}.cls-11{fill:url(#New_Gradient_Swatch_1);}.cls-9{fill:url(#linear-gradient-5);}</style><linearGradient id="linear-gradient" x1="119.31" y1="201.7" x2="234.42" y2="201.7" gradientUnits="userSpaceOnUse"><stop offset="0" stop-color="#418ecc"/><stop offset="1" stop-color="#71cbd2"/></linearGradient><linearGradient id="linear-gradient-2" x1="97.67" y1="116.08" x2="267.7" y2="116.08" gradientUnits="userSpaceOnUse"><stop offset="0" stop-color="#ed2024"/><stop offset="1" stop-color="#fbb040"/></linearGradient><linearGradient id="linear-gradient-3" x1="62.31" y1="152.61" x2="325.32" y2="152.61" gradientUnits="userSpaceOnUse"><stop offset="0" stop-color="#0c5545"/><stop offset="1" stop-color="#1bb895"/></linearGradient><linearGradient id="New_Gradient_Swatch_1" x1="268.4" y1="228.37" x2="64.19" y2="228.37" gradientUnits="userSpaceOnUse"><stop offset="0" stop-color="#0c5545"/><stop offset="1" stop-color="#1bb895"/></linearGradient><linearGradient id="linear-gradient-4" x1="83.9" y1="175.12" x2="313.89" y2="175.12" gradientUnits="userSpaceOnUse"><stop offset="0" stop-color="#00adb5"/><stop offset=".41" stop-color="#00adb7"/><stop offset=".66" stop-color="#00adbf"/><stop offset=".87" stop-color="#00adce"/><stop offset="1" stop-color="#00addc"/></linearGradient><linearGradient id="linear-gradient-5" x1="292.55" y1="164.11" x2="7.16" y2="164.11" gradientUnits="userSpaceOnUse"><stop offset="0" stop-color="#41c5e7"/><stop offset="1" stop-color="#65c9d5"/></linearGradient><linearGradient id="New_Gradient_Swatch_1-2" x1="194.54" y1="132.17" x2="360.81" y2="132.17" xlink:href="#New_Gradient_Swatch_1"/><linearGradient id="New_Gradient_Swatch_1-3" x1="194.93" y1="136.81" x2="360.58" y2="136.81" xlink:href="#New_Gradient_Swatch_1"/></defs><g class="cls-5"><g id="Layer_1"><g class="cls-7"><path class="cls-2" d="M182.06,305.22c-6.24,0-12.1-2.46-16.48-6.91l-75.88-77.44c-24.11-24.41-37.4-56.78-37.4-91.11,0-29.77,9.84-57.8,28.45-81.05.17-.21.28-.36.4-.5.19-.25.38-.49.58-.73.21-.25.41-.49.61-.72l.27-.31c1.01-1.21,2.08-2.45,3.2-3.71.09-.1.44-.48.44-.48h0C110.67,15.4,145.45,0,181.69,0h.38c55.52,0,104.44,35.21,122.47,86.86l17.55-5.99c1.06-.36,2.15-.54,3.23-.54,3.09,0,6.09,1.44,8.01,4.01,1.31,1.75,1.97,3.82,1.99,5.9.42-.02.84-.02,1.26-.02,2.71,0,5.25.32,7.61.69,5.36.07,12.8.85,17.31,2.85,7.15,3.16,10.88,11.15,8.67,18.57-2.23,7.58-10.08,13.69-25.47,19.78-4.07,1.6-12.89,4.9-26.95,10.07-4,4.01-14.62,14.36-25.74,22.71l18.16-6.67c1.18-.47,2.45-.72,3.72-.72,4.05,0,7.7,2.44,9.25,6.19,1.54,3.75.67,8.05-2.2,10.91l-44.19,43.86s-2.25,2.37-2.29,2.41l-75.91,77.43c-4.39,4.47-10.24,6.92-16.49,6.92Z"/></g><g class="cls-7"><path class="cls-2" d="M340.89,108.55c-2.36-1.05-7.83-1.77-12.5-1.77-5.13-.85-8.68-1.06-14.07,1-3.29,1.27-7.8,3.16-13.03,5.46,6.52-9.34,11.12-15.84,11.12-15.84l-24.24,8.27c-11.84-45.72-53.34-79.49-102.76-79.49-.05,0-.11,0-.16,0s-.12,0-.18,0c-30.94,0-58.75,13.34-78.05,34.57-.12.12-.22.25-.34.36-.89.99-1.76,2-2.62,3.02-.25.3-.51.59-.74.88-.27.34-.54.69-.82,1.03-14.55,18.17-23.28,41.22-23.28,66.32,0,29.07,11.69,55.4,30.62,74.57l67.27,68.65c4.56,4.64,12.01,4.64,16.57,0l67.3-68.65,2.02-2.13,39.27-38.97s-.02,0-.04.02l-40.91,15.03s-1.08-.54-2.93-1.13c-1.01-.31,2.96-7.16,9.14-16.78,14.09-7.43,33.23-27.22,33.23-27.22,11.81-4.34,21.47-7.93,25.55-9.54,12.1-4.79,16.45-8.77,17.34-11.82.81-2.71-.96-5.03-2.78-5.83Z"/></g><path class="cls-10" d="M130.54,193.13l103.88,4.4c-14.47,11.21-32.64,17.87-52.36,17.87-24.8,0-47.14-10.54-62.76-27.38l11.24,5.11Z"/><path class="cls-1" d="M267.7,129.76c0,17.92-5.5,34.56-14.91,48.31-.47-.01-.93-.01-1.41,0-15.83.53-22.55,9.98-22.55,9.98-3.01-11.84-14.48-24.39-36.55-27.56-18.13-2.61-32.26,8.24-32.26,8.24,3.02-14.79-4.79-41.94-29.24-51.47-12.59-4.9-24.51-4.02-33.11-2.02,6.88-40.37,42.05-71.11,84.4-71.11,47.3,0,85.64,38.35,85.64,85.64Z"/><path class="cls-4" d="M232.93,219.39c-15,8.54-32.36,13.41-50.87,13.41-56.91,0-103.04-46.13-103.04-103.04S125.16,26.71,182.07,26.71c0,0,4.38-.26,11.5.31,44.74,5.15,80.73,39.03,88.99,82.75l42.76-19.44-27.34,9.33c-13.35-51.57-60.16-89.66-115.91-89.66-.06,0-.12,0-.17,0-.07,0-.13,0-.2,0-34.9,0-66.28,15.05-88.04,38.99-.12.14-.25.27-.37.41-1.01,1.12-1.99,2.26-2.96,3.41-.28.33-.56.65-.84.99-.31.38-.61.78-.91,1.16-16.42,20.5-26.26,46.49-26.26,74.79,0,32.79,13.19,62.49,34.53,84.12h-.03l1.81,1.84s.07.07.1.1c.13.13.26.25.4.39.57.53,1.27,1.2,2.1,1.98.82.77,1.78,1.53,2.85,2.45.54.46,1.1.93,1.7,1.43.63.47,1.28.97,1.98,1.49.68.53,1.39,1.07,2.13,1.63.75.54,1.56,1.07,2.38,1.63.82.56,1.67,1.14,2.55,1.74.91.54,1.84,1.1,2.8,1.68,1.88,1.21,3.98,2.28,6.14,3.45,4.37,2.23,9.22,4.48,14.55,6.38,2.63,1.02,5.43,1.81,8.27,2.72,2.87.77,5.79,1.59,8.83,2.19,6.04,1.28,12.38,2.27,18.87,2.66,1.62.17,3.24.17,4.89.24l2.45.1c.78.01,1.66-.01,2.46-.01,1.55,0,3.33-.1,4.93-.19l2.44-.21,2.44-.31c13.05-1.74,25.58-6.88,35.84-13.86,2.56-1.73,5-3.59,7.42-5.42,2.41-1.8,4.78-3.58,7.07-5.29,4.61-3.45,8.95-6.71,12.96-9.72,14.55-10.89,24.7-18.49,26.48-19.83-1.74,1.38-11.7,9.25-25.96,20.53-3.93,3.11-8.19,6.47-12.7,10.04-2.26,1.78-4.57,3.62-6.93,5.49s-4.76,3.82-7.35,5.65c-10.28,7.38-22.98,13.02-36.43,15.16l-2.53.38-2.56.29c-1.71.15-3.27.28-5.05.33-.85.03-1.63.07-2.53.07l-2.51-.03c-1.68-.03-3.36.01-5.01-.11-6.67-.22-13.19-1.07-19.44-2.23-3.13-.54-6.17-1.31-9.15-2.02-2.95-.85-5.85-1.59-8.61-2.58-5.56-1.81-10.65-4.01-15.26-6.21-.86-.45-1.71-.88-2.55-1.31l53.62,54.71c5.14,5.24,13.55,5.24,18.69,0l75.9-77.42,2.28-2.41,31.48-32s-66.96,39.25-68.08,39.88l-.07.04Z"/><path class="cls-11" d="M283.68,193.13l-59.21,52.64s-21.17,17.84-42.78,17.84h-.03c-24.37.26-43.17-7.23-43.17-7.23l-19.4-19.79c.84.43,1.68.86,2.55,1.31,4.61,2.2,9.71,4.4,15.26,6.21,2.76.99,5.65,1.73,8.61,2.58,2.98.71,6.02,1.48,9.15,2.02,6.25,1.16,12.77,2.01,19.44,2.23,1.66.13,3.33.08,5.01.11l2.51.03c.91,0,1.68-.04,2.53-.07,1.78-.06,3.34-.18,5.05-.33l2.56-.29,2.53-.38c13.45-2.14,26.15-7.78,36.43-15.16,2.59-1.84,4.99-3.79,7.35-5.65s4.68-3.7,6.93-5.49c4.51-3.56,8.77-6.93,12.7-10.04,12.92-10.22,22.31-17.64,25.25-19.97l.52-.4h0s.19-.15.19-.15Z"/><path class="cls-3" d="M313.89,167.51l-77.41,44.5c-2.35,1.48-7.06,3.79-9.54,5.07l-.15.08c-13.41,6.88-28.62,10.76-44.73,10.76-54.22,0-98.17-43.95-98.17-98.17,0,0,18.67-11.82,42.3-5.65,37.93,9.93,28.71,53.61,28.71,53.61,0,0,13.19-15.03,41.08-10.1,27.15,4.79,32.03,28.55,32.03,28.55,0,0,4.71-9.22,17.06-13.06,8.12-2.51,15.33-1.13,19.33.11,2.09.65,3.3,1.27,3.3,1.27l46.19-16.97Z"/><path class="cls-9" d="M313.89,167.51l-44.27,20.51s-7.32-5.03-21.41-1.43c-13,3.31-21.24,19.33-21.24,19.33,0,0-7.8-24.65-32.03-30.79-32.25-8.17-48.74,19.65-48.74,19.65,0,0,8.88-27.15-7.14-51.87-16.01-24.72-55.18-13.14-55.18-13.14,0,0,18.67-11.82,42.3-5.65,37.93,9.93,28.71,53.61,28.71,53.61,0,0,13.19-15.03,41.08-10.1,27.15,4.79,32.03,28.55,32.03,28.55,0,0,4.71-9.22,17.06-13.06,8.12-2.51,15.33-1.13,19.33.11,2.09.65,3.3,1.27,3.3,1.27l46.19-16.97Z"/><path class="cls-6" d="M360.58,109.49c-1.02,3.44-5.92,7.92-19.56,13.33-4.6,1.81-15.5,5.86-28.82,10.76l-28.3,26.14-3.77,1.56,7.24-17.07,12.27-6.03c-5.64,2.06-62.52,22.75-69.96,25.43-1.39.53-2.9.64-4.36.38l-29.8-5.47c-.38-.08-.64-.45-.58-.84l.06-.39.11-.78c.06-.38.39-.64.74-.63l12.45.33-13.59-13.2c-.26-.26-.17-.7.17-.82l6.06-2.13c.61-.22,1.28-.24,1.91-.06,3.38,1.06,14.97,4.71,24.15,7.9,1.5.15,13.37-5.42,28.69-12.81l6.52,1.27-43.78-14.75c-.27-.09-.29-.47-.02-.58l4.99-2.13c.26-.11.55-.16.84-.15l58.23,3.44c17.96-8.61,35.76-16.58,45.05-20.15,6.08-2.33,10.08-2.09,15.86-1.14,5.28,0,11.44.83,14.1,2,2.07.91,4.05,3.52,3.15,6.59Z"/><path class="cls-8" d="M360.58,109.49c-1.02,3.44-5.92,7.92-19.56,13.33-4.6,1.81-15.5,5.86-28.82,10.76l-28.3,26.14-3.77,1.56,7.24-17.07,12.27-6.03c-5.64,2.06-62.52,22.75-69.96,25.43-1.39.53-2.9.64-4.36.38l-29.8-5.47c-.38-.08-.64-.45-.58-.84l.06-.39s30.19,5.46,31.75,5.4c1.57-.06,120.17-45.2,120.17-45.2,0,0,11.06-4.15,13.67-7.99Z"/><path class="cls-2" d="M25.54,341.51c-.13-.05-.27-.09-.41-.13,1.82-.75,3.28-1.74,4.31-2.99,1.21-1.47,1.82-3.25,1.82-5.33,0-3.77-1.46-6.59-4.39-8.45-2.93-1.86-7.08-2.79-12.45-2.79-2.21,0-4.37.11-6.47.32-2.1.22-3.89.59-5.36,1.11-.78.26-1.41.63-1.88,1.11-.48.48-.71,1.13-.71,1.95v31.07c0,2.08,1.13,3.53,3.38,4.36,1.13.39,2.37.69,3.74.91,1.37.22,2.71.37,4.03.46,1.32.09,2.5.13,3.54.13,5.76,0,10.2-1.02,13.32-3.05,3.12-2.04,4.68-5.16,4.68-9.36,0-2.21-.6-4.09-1.79-5.65-1.19-1.56-2.98-2.77-5.36-3.64ZM11.89,329.45c.91-.06,1.78-.1,2.6-.1,2.3,0,4.02.39,5.17,1.17,1.15.78,1.72,1.88,1.72,3.31,0,1.52-.5,2.69-1.5,3.51-1,.82-2.53,1.23-4.61,1.23h-5.66v-8.84c.61-.13,1.37-.23,2.27-.29ZM20.57,354.28c-1.32.85-3.07,1.27-5.23,1.27-.95,0-1.96-.04-3.02-.13-1.06-.09-1.96-.22-2.7-.39v-9.42h6.18c2.25,0,3.94.39,5.07,1.17,1.13.78,1.69,1.99,1.69,3.64,0,1.73-.66,3.02-1.98,3.87Z"/><path class="cls-2" d="M64.58,324.06c-3.31-1.5-7.21-2.24-11.67-2.24-1.65,0-3.47.09-5.46.26-1.99.17-3.86.54-5.59,1.1-.78.3-1.41.68-1.88,1.14-.48.46-.71,1.12-.71,1.98v31.07c0,2.08,1.13,3.53,3.38,4.36,1.69.61,3.57,1.01,5.65,1.2s3.83.29,5.27.29c4.33,0,8.11-.77,11.34-2.31,3.23-1.54,5.74-3.85,7.54-6.92,1.8-3.08,2.7-6.96,2.7-11.63s-.93-8.47-2.79-11.5c-1.86-3.03-4.45-5.3-7.77-6.79ZM61.85,351.98c-2.06,2.12-4.8,3.18-8.22,3.18-.74,0-1.52-.03-2.34-.1-.82-.06-1.56-.16-2.21-.29v-24.64c.74-.09,1.46-.16,2.18-.23.71-.06,1.46-.1,2.24-.1,2.25,0,4.23.47,5.95,1.4,1.71.93,3.06,2.33,4.03,4.19s1.46,4.25,1.46,7.15c0,4.16-1.03,7.3-3.09,9.43Z"/><path class="cls-2" d="M110.3,338.13l-3.58-1.1c-1.39-.43-2.43-.92-3.12-1.46-.69-.54-1.04-1.25-1.04-2.11,0-1.08.52-1.96,1.56-2.63,1.04-.67,2.6-1.01,4.68-1.01s3.81.25,5.46.75c1.65.5,2.97,1.09,3.96,1.79.69-.52,1.27-1.14,1.72-1.85.46-.71.68-1.57.68-2.57,0-1.34-.55-2.48-1.66-3.41-1.1-.93-2.62-1.63-4.55-2.11-1.93-.48-4.13-.71-6.6-.71-4.85,0-8.65,1.06-11.38,3.18-2.73,2.12-4.1,4.98-4.1,8.58,0,2.34.49,4.27,1.46,5.79.97,1.52,2.36,2.75,4.16,3.71,1.8.95,3.87,1.82,6.21,2.6l3.45,1.11c1.56.48,2.74,1.05,3.54,1.72.8.67,1.2,1.55,1.2,2.63,0,1.17-.51,2.18-1.53,3.02-1.02.84-2.7,1.27-5.04,1.27-2.21,0-4.19-.38-5.95-1.14-1.75-.76-3.22-1.61-4.39-2.57-.82.39-1.57.99-2.24,1.79-.67.8-1.01,1.77-1.01,2.89,0,1.43.62,2.69,1.85,3.77,1.23,1.08,2.89,1.91,4.97,2.47s4.44.85,7.08.85c5.33,0,9.4-1.14,12.22-3.41,2.82-2.27,4.23-5.23,4.23-8.87,0-3.38-1.06-6.08-3.19-8.09-2.12-2.01-5.16-3.63-9.1-4.84Z"/><path class="cls-2" d="M157.62,322.21c-.87,0-1.73.07-2.6.2-.87.13-1.54.24-2.02.33v15.79h-14.36v-11.64c0-1.82-.41-3.05-1.24-3.71-.82-.65-2.19-.97-4.09-.97-.82,0-1.68.07-2.57.2-.89.13-1.55.24-1.98.33v35.29c0,1.73.4,2.95,1.2,3.64.8.69,2.18,1.04,4.13,1.04.91,0,1.8-.05,2.67-.16.87-.11,1.5-.23,1.89-.36v-15.79h14.36v11.64c0,1.73.4,2.95,1.2,3.64.8.69,2.18,1.04,4.13,1.04.91,0,1.8-.05,2.67-.16.87-.11,1.52-.23,1.95-.36v-35.23c0-1.82-.42-3.07-1.27-3.74-.85-.67-2.2-1.01-4.06-1.01Z"/><path class="cls-2" d="M176.15,322.21c-.87,0-1.74.07-2.63.2-.89.13-1.55.24-1.98.33v35.29c0,1.73.4,2.95,1.2,3.64.8.69,2.18,1.04,4.13,1.04.91,0,1.8-.05,2.67-.16.87-.11,1.5-.23,1.89-.36v-35.29c0-1.82-.41-3.05-1.24-3.71-.82-.65-2.17-.97-4.03-.97Z"/><path class="cls-2" d="M216.48,325.55c-3.01-2.49-7.44-3.74-13.29-3.74-1.6,0-3.4.11-5.39.32-1.99.22-3.71.59-5.13,1.11-.78.26-1.41.63-1.89,1.11-.48.48-.71,1.13-.71,1.95v31.72c0,1.73.4,2.95,1.2,3.64.8.69,2.18,1.04,4.13,1.04.91,0,1.8-.05,2.66-.16.87-.11,1.5-.23,1.88-.36v-12.61h4.49c3.46,0,6.43-.57,8.9-1.72,2.47-1.15,4.37-2.76,5.69-4.84,1.32-2.08,1.98-4.51,1.98-7.28,0-4.29-1.51-7.68-4.52-10.17ZM209.01,340.21c-1.28,1.04-3.02,1.56-5.23,1.56h-3.9v-11.7c.61-.09,1.22-.15,1.85-.2.63-.04,1.33-.06,2.11-.06,2.3,0,4.05.5,5.27,1.49,1.21,1,1.82,2.47,1.82,4.42s-.64,3.44-1.92,4.48Z"/><path class="cls-2" d="M269.46,350.58c-.2-2.4-.4-4.88-.62-7.41-.22-2.54-.43-4.96-.65-7.28-.22-2.32-.42-4.37-.62-6.14-.2-1.78-.38-3.08-.55-3.9-.22-1.08-.9-1.89-2.05-2.44-1.15-.54-2.65-.81-4.52-.81-1.04,0-2.03.1-2.96.29-.93.2-1.7.47-2.31.81-.91,2.43-2,5.46-3.28,9.1-1.28,3.64-2.53,7.37-3.74,11.18h-.33c-.61-1.69-1.27-3.59-1.98-5.69s-1.44-4.18-2.18-6.24c-.74-2.06-1.43-3.87-2.08-5.43-.52-1.43-1.38-2.46-2.57-3.09-1.19-.63-2.76-.94-4.71-.94-1.82,0-3.25.27-4.29.81-1.04.54-1.73,1.07-2.08,1.59-.17,2.25-.36,4.71-.55,7.38-.2,2.67-.37,5.36-.52,8.09-.15,2.73-.3,5.32-.46,7.77-.15,2.45-.28,4.62-.39,6.5-.11,1.89-.16,3.3-.16,4.26,0,1.39.47,2.36,1.4,2.92.93.56,2.22.84,3.87.84.78,0,1.57-.09,2.37-.26.8-.17,1.44-.33,1.92-.46.17-2.64.3-5.07.39-7.28s.15-4.39.2-6.53c.04-2.14.11-4.34.2-6.6.09-2.25.19-4.74.32-7.47h.33c.56,1.99,1.35,4.36,2.37,7.08,1.02,2.73,2.26,6.15,3.74,10.27.26.82.84,1.41,1.75,1.75s2.04.52,3.38.52c1.04,0,1.96-.13,2.76-.39.8-.26,1.44-.58,1.92-.98,1.52-4.46,2.78-8.11,3.8-10.95,1.02-2.84,1.81-5.19,2.37-7.05h.32c.09,1.82.16,4,.23,6.53.07,2.53.16,5.33.29,8.38s.3,6.27.52,9.65c.09,1.47.62,2.47,1.59,2.99.97.52,2.16.78,3.54.78,1.08,0,1.98-.1,2.7-.29s1.4-.49,2.05-.88c-.04-1.13-.13-2.64-.26-4.55-.13-1.91-.29-4.06-.49-6.47Z"/><path class="cls-2" d="M306.93,343.07c-1-3.29-1.98-6.45-2.96-9.46-.97-3.01-1.88-5.67-2.7-7.96-.39-1.17-1.32-2.03-2.79-2.57-1.47-.54-3.14-.81-5-.81-1.3,0-2.61.16-3.93.49-1.32.33-2.29.68-2.89,1.07-.48,1.17-1.09,2.79-1.85,4.88-.76,2.08-1.58,4.36-2.47,6.83-.89,2.47-1.76,4.97-2.6,7.51-.84,2.53-1.62,4.89-2.34,7.05-.71,2.17-1.27,3.96-1.66,5.4-.22.74-.4,1.39-.55,1.95-.15.56-.23,1.1-.23,1.62,0,1.26.48,2.21,1.43,2.86.95.65,2.34.98,4.16.98.82,0,1.54-.08,2.15-.23.61-.15,1.15-.29,1.62-.42.22-.69.43-1.43.65-2.21s.46-1.6.71-2.47c.26-.87.51-1.75.75-2.67.13-.49.26-.97.39-1.43h13.07l1.58,5.53c.39,1.3.95,2.28,1.69,2.92.74.65,1.99.98,3.77.98,1.26,0,2.34-.19,3.25-.55.91-.37,1.6-.81,2.08-1.33-.69-2.47-1.51-5.25-2.44-8.35-.93-3.1-1.9-6.29-2.89-9.59ZM290.09,340.96c.61-1.84,1.2-3.61,1.79-5.3s1.09-3.23,1.53-4.62h.39c.39,1.26.82,2.7,1.3,4.32.48,1.62,1,3.35,1.56,5.17.52,1.7,1.03,3.46,1.52,5.26h-9.63c.5-1.61,1.01-3.22,1.55-4.84Z"/><path class="cls-2" d="M345.63,352.56c-.97-1.26-1.99-2.56-3.05-3.9-.43-.54-.82-1.1-1.24-1.64,2.23-1.13,4.02-2.64,5.33-4.56,1.41-2.06,2.11-4.39,2.11-6.99,0-4.2-1.47-7.53-4.42-9.98-2.95-2.45-7.34-3.67-13.2-3.67-2.08,0-4.08.11-6.01.32-1.93.22-3.61.59-5.04,1.11-.78.26-1.41.63-1.88,1.11-.48.48-.71,1.13-.71,1.95v31.72c0,1.73.4,2.95,1.2,3.64s2.18,1.04,4.13,1.04c.91,0,1.8-.05,2.67-.16.87-.11,1.5-.23,1.88-.36v-13.19h4.77l6.47,9.94c.74,1.17,1.53,2.11,2.37,2.83s2.07,1.07,3.67,1.07c1.26,0,2.38-.36,3.38-1.07,1-.71,1.69-1.72,2.08-3.02-.48-.74-1.11-1.64-1.88-2.7-.78-1.06-1.66-2.22-2.63-3.48ZM327.34,330.14c.56-.13,1.15-.22,1.75-.26.61-.04,1.28-.06,2.02-.06,2.6,0,4.53.49,5.79,1.46,1.26.98,1.88,2.39,1.88,4.26s-.66,3.35-1.98,4.32c-1.32.97-3.07,1.46-5.23,1.46h-4.23v-11.18Z"/><path class="cls-2" d="M384.47,324.48c-.22-.69-.46-1.24-.71-1.62h-28.47c-1.04,0-1.88.32-2.5.97s-.94,1.69-.94,3.12c0,.78.1,1.52.29,2.21.19.69.44,1.24.75,1.62h10.33v27.24c0,1.73.4,2.95,1.2,3.64.8.69,2.18,1.04,4.13,1.04.91,0,1.8-.05,2.67-.16.87-.11,1.52-.23,1.95-.36v-31.39h8.12c1.08,0,1.94-.33,2.57-1.01.63-.67.94-1.7.94-3.09,0-.78-.11-1.52-.33-2.21Z"/><path class="cls-2" d="M49.08,397.7c-.08-.09-.18-.13-.3-.13h-.4c-.1,0-.23-.02-.39-.07s-.35-.14-.58-.27c-.23-.13-.52-.3-.85-.52-.33-.22-.72-.49-1.18-.82.31-.45.6-.94.86-1.46s.48-1.06.65-1.63c.17-.57.31-1.15.4-1.75s.14-1.19.14-1.77v-.59c0-.16-.04-.29-.11-.39-.07-.1-.19-.19-.37-.25-.17-.06-.41-.1-.71-.12-.3-.02-.68-.03-1.13-.03-.48,0-.87.02-1.18.05-.31.03-.54.08-.7.14-.16.06-.27.14-.32.24-.05.1-.08.21-.08.35v.57c0,.35-.03.71-.09,1.08-.06.37-.14.73-.23,1.08-.1.35-.21.69-.35,1.01-.14.32-.29.6-.46.84-.44-.35-.9-.74-1.36-1.15-.47-.41-.93-.83-1.39-1.25-.46-.42-.91-.84-1.35-1.26-.43-.42-.83-.82-1.18-1.2,1.08-.53,2.02-1.05,2.83-1.57s1.48-1.06,2.02-1.62c.54-.56.94-1.15,1.21-1.77.27-.62.4-1.3.4-2.03,0-.82-.16-1.55-.47-2.21s-.79-1.2-1.42-1.65-1.45-.79-2.44-1.04c-.99-.24-2.16-.37-3.53-.37-1.49,0-2.77.16-3.84.49s-1.94.76-2.63,1.31c-.69.55-1.2,1.2-1.52,1.95-.32.75-.49,1.55-.49,2.41,0,.4.06.81.17,1.22.11.41.28.84.51,1.29.23.45.51.92.86,1.42.34.49.75,1.02,1.22,1.58-.83.46-1.56.94-2.19,1.43-.63.49-1.16,1-1.59,1.54s-.75,1.11-.97,1.71c-.21.6-.32,1.25-.32,1.93,0,.81.12,1.54.35,2.21s.56,1.26.97,1.77.92.97,1.5,1.35,1.23.69,1.94.94c.71.25,1.46.44,2.27.56s1.63.18,2.48.18,1.66-.05,2.42-.17c.75-.11,1.48-.27,2.19-.47.71-.21,1.39-.47,2.04-.78.65-.31,1.28-.66,1.89-1.05.7.49,1.32.89,1.85,1.2.53.31,1,.56,1.4.75s.76.32,1.06.38c.31.07.6.1.89.1.36,0,.68-.03.94-.1s.44-.14.56-.22c.11-.08.19-.18.23-.3.05-.12.08-.31.1-.57.02-.26.03-.61.03-1.06,0-.43-.02-.75-.06-.97s-.1-.37-.18-.46ZM31.87,381.13c.12-.29.3-.54.55-.75s.56-.38.95-.49c.38-.12.85-.17,1.39-.17.49,0,.92.06,1.29.16.36.11.67.26.92.45s.43.41.55.67.18.53.18.82c0,.33-.07.65-.19.96-.13.31-.35.62-.66.93-.31.31-.72.63-1.24.96-.51.33-1.15.69-1.92,1.08-.31-.39-.59-.75-.84-1.09s-.45-.65-.61-.95c-.16-.3-.29-.59-.38-.86-.09-.28-.14-.54-.14-.8,0-.33.06-.64.18-.92ZM37.51,396.94c-.33.16-.68.3-1.05.42-.37.12-.75.21-1.13.28-.38.07-.77.1-1.16.1-.75,0-1.42-.09-2-.27-.58-.18-1.06-.42-1.45-.74s-.69-.7-.9-1.13-.31-.92-.31-1.45c0-.32.05-.63.14-.93s.23-.6.43-.9.44-.58.75-.87c.31-.29.68-.56,1.14-.83.4.44.86.91,1.37,1.4.51.49,1.05.99,1.61,1.49s1.13,1,1.73,1.49c.59.49,1.18.96,1.76,1.4-.29.2-.59.37-.93.54Z"/><path class="cls-2" d="M81.44,378.9c-.18-.17-.48-.37-.93-.6-.44-.23-1-.45-1.67-.65-.67-.2-1.45-.37-2.35-.51s-1.89-.21-2.98-.21c-1.99,0-3.79.29-5.41.86-1.62.57-3,1.4-4.14,2.48-1.14,1.08-2.03,2.39-2.65,3.94s-.94,3.28-.94,5.23.29,3.56.88,5.04c.58,1.48,1.43,2.74,2.53,3.77s2.45,1.82,4.04,2.36c1.59.54,3.39.81,5.41.81.69,0,1.37-.03,2.06-.09.68-.06,1.36-.15,2.03-.27.67-.12,1.32-.27,1.94-.44s1.15-.34,1.57-.49c.42-.16.7-.38.84-.65.14-.28.2-.59.2-.96v-9.43c0-.24-.03-.46-.1-.65s-.16-.35-.28-.48c-.12-.13-.27-.23-.43-.3-.16-.07-.35-.1-.56-.1h-8.52c-.12,0-.22.03-.31.1s-.17.17-.23.31-.11.33-.15.56c-.03.23-.05.52-.05.86,0,.66.07,1.13.19,1.4.13.28.31.41.55.41h4.77v5.49c-.48.24-1,.43-1.56.55-.56.12-1.12.18-1.7.18-1.17,0-2.24-.18-3.21-.53-.97-.35-1.8-.88-2.48-1.57s-1.22-1.56-1.61-2.59c-.38-1.03-.57-2.22-.57-3.58,0-1.23.19-2.36.57-3.38s.92-1.89,1.62-2.62,1.55-1.29,2.53-1.68,2.09-.59,3.31-.59c1.14,0,2.15.11,3.01.33.86.22,1.61.46,2.23.71s1.12.49,1.5.71.65.33.82.33c.12,0,.22-.03.3-.09.08-.06.16-.17.22-.32.06-.15.1-.36.14-.61.03-.25.05-.56.05-.91,0-.61-.04-1.07-.12-1.38-.08-.31-.2-.55-.38-.72Z"/><path class="cls-2" d="M100.4,397.47c-.07-.15-.15-.26-.24-.33-.1-.07-.21-.1-.34-.1h-7.93v-19.05c0-.12-.04-.23-.13-.33-.08-.1-.22-.18-.42-.24-.19-.06-.45-.11-.78-.15-.32-.04-.74-.06-1.25-.06s-.91.02-1.24.06c-.33.04-.59.08-.79.15-.19.06-.33.14-.42.24-.08.1-.13.21-.13.33v21.5c0,.54.15.93.44,1.16.29.24.65.36,1.08.36h11.56c.13,0,.24-.04.34-.11.1-.07.18-.19.24-.36.07-.16.11-.37.15-.62.03-.25.05-.56.05-.92s-.02-.67-.05-.92c-.03-.25-.08-.45-.15-.6Z"/><path class="cls-2" d="M122.23,379.82c-.98-.99-2.2-1.72-3.66-2.2-1.46-.48-3.15-.71-5.06-.71s-3.76.29-5.27.86c-1.51.57-2.78,1.4-3.81,2.47-1.03,1.07-1.8,2.38-2.32,3.91s-.78,3.26-.78,5.17c0,2.09.24,3.89.73,5.42.49,1.53,1.22,2.78,2.19,3.77.97.99,2.19,1.72,3.65,2.21,1.46.48,3.17.72,5.13.72s3.74-.28,5.25-.85c1.51-.57,2.78-1.39,3.81-2.47,1.03-1.08,1.8-2.39,2.32-3.94s.78-3.31.78-5.27-.25-3.83-.75-5.34c-.5-1.51-1.24-2.75-2.22-3.74ZM119.5,392.37c-.21,1.01-.58,1.89-1.1,2.64s-1.2,1.35-2.05,1.79-1.9.66-3.16.66-2.31-.19-3.14-.58c-.83-.38-1.49-.94-1.99-1.67s-.84-1.61-1.05-2.65-.31-2.19-.31-3.49c0-1.11.11-2.16.32-3.16.22-.99.58-1.86,1.1-2.61.52-.74,1.2-1.34,2.05-1.78s1.9-.67,3.16-.67,2.29.2,3.12.59,1.5.96,2,1.68c.5.73.85,1.6,1.06,2.62s.31,2.15.31,3.4c0,1.13-.11,2.21-.32,3.21Z"/><path class="cls-2" d="M145.92,390.04c-.45-.48-.97-.87-1.58-1.18-.6-.31-1.26-.52-1.98-.64.56-.19,1.06-.45,1.49-.77.43-.32.8-.68,1.1-1.1.3-.42.53-.88.68-1.38s.23-1.05.23-1.62c0-1.02-.19-1.92-.58-2.67-.39-.76-.95-1.38-1.69-1.88-.73-.49-1.64-.86-2.71-1.11-1.07-.24-2.38-.37-3.93-.37h-6.33c-.43,0-.79.12-1.08.36-.29.24-.44.62-.44,1.16v20.64c0,.54.15.93.44,1.16.29.24.65.36,1.08.36h6.7c1.01,0,1.93-.06,2.76-.17.83-.12,1.6-.3,2.33-.54.73-.24,1.39-.55,2-.93.6-.38,1.12-.83,1.56-1.35.44-.53.78-1.13,1.02-1.81.25-.68.37-1.45.37-2.29s-.13-1.53-.39-2.18c-.26-.65-.61-1.21-1.06-1.69ZM134.14,380.94h2.59c.79,0,1.43.07,1.9.2.47.13.87.33,1.18.58s.55.56.7.94c.16.38.23.81.23,1.28,0,.43-.07.83-.21,1.22-.14.38-.36.72-.65,1.01-.29.29-.66.51-1.1.68-.44.16-1.03.25-1.77.25h-2.86v-6.15ZM141.75,395.48c-.2.41-.48.75-.84,1.02-.36.27-.78.48-1.27.62-.49.14-1.09.21-1.8.21h-3.7v-6.74h3.04c.94,0,1.7.08,2.28.24s1.07.38,1.44.68.66.66.86,1.09.29.93.29,1.47-.1.99-.3,1.4Z"/><path class="cls-2" d="M163.56,378.23c-.08-.23-.17-.42-.28-.55-.11-.13-.29-.23-.55-.3-.25-.07-.61-.11-1.06-.13-.45-.02-1.07-.03-1.83-.03-.66,0-1.2,0-1.6.03-.4.02-.72.06-.94.13-.23.07-.39.17-.5.29-.1.13-.19.3-.27.5l-7.78,21.01c-.16.43-.25.77-.29,1.02s0,.45.14.59.36.23.7.27c.34.04.81.05,1.4.05.56,0,1.01-.01,1.35-.04.34-.02.61-.07.8-.14.19-.07.32-.16.41-.27.08-.12.15-.26.2-.43l1.6-4.63h9.47l1.7,4.76c.05.16.12.29.19.38s.21.17.41.23c.19.06.48.09.85.11.37.02.89.03,1.55.03s1.14-.02,1.5-.05.62-.11.76-.24c.14-.13.19-.32.16-.58-.04-.26-.14-.6-.29-1.04l-7.8-20.99ZM156.19,391.92l3.57-10.07h.02l3.57,10.07h-7.15Z"/><path class="cls-2" d="M188.14,397.47c-.07-.15-.15-.26-.24-.33-.1-.07-.21-.1-.34-.1h-7.93v-19.05c0-.12-.04-.23-.13-.33-.08-.1-.22-.18-.42-.24-.19-.06-.45-.11-.78-.15-.32-.04-.74-.06-1.25-.06s-.91.02-1.24.06c-.33.04-.59.08-.79.15-.19.06-.33.14-.42.24-.08.1-.13.21-.13.33v21.5c0,.54.15.93.44,1.16.29.24.65.36,1.08.36h11.56c.13,0,.24-.04.34-.11.1-.07.18-.19.24-.36.07-.16.11-.37.15-.62.03-.25.05-.56.05-.92s-.02-.67-.05-.92c-.03-.25-.08-.45-.15-.6Z"/><path class="cls-2" d="M213.25,397.47c-.06-.15-.15-.26-.24-.33-.1-.07-.21-.1-.34-.1h-7.93v-19.05c0-.12-.04-.23-.13-.33s-.22-.18-.42-.24c-.19-.06-.45-.11-.78-.15-.32-.04-.74-.06-1.25-.06s-.91.02-1.24.06c-.33.04-.59.08-.79.15-.19.06-.33.14-.42.24s-.13.21-.13.33v21.5c0,.54.15.93.44,1.16.29.24.65.36,1.08.36h11.56c.13,0,.24-.04.34-.11.1-.07.18-.19.24-.36.06-.16.11-.37.15-.62s.05-.56.05-.92-.02-.67-.05-.92-.08-.45-.15-.6Z"/><path class="cls-2" d="M235.07,379.82c-.98-.99-2.2-1.72-3.66-2.2-1.46-.48-3.15-.71-5.06-.71s-3.76.29-5.27.86-2.78,1.4-3.81,2.47c-1.03,1.07-1.8,2.38-2.32,3.91s-.78,3.26-.78,5.17c0,2.09.24,3.89.73,5.42.49,1.53,1.22,2.78,2.19,3.77.97.99,2.19,1.72,3.65,2.21,1.46.48,3.17.72,5.13.72s3.74-.28,5.25-.85c1.51-.57,2.78-1.39,3.81-2.47,1.03-1.08,1.8-2.39,2.32-3.94.52-1.55.78-3.31.78-5.27s-.25-3.83-.75-5.34-1.24-2.75-2.22-3.74ZM232.34,392.37c-.21,1.01-.58,1.89-1.1,2.64s-1.2,1.35-2.05,1.79c-.85.44-1.9.66-3.16.66s-2.31-.19-3.14-.58c-.83-.38-1.49-.94-1.99-1.67s-.84-1.61-1.05-2.65-.31-2.19-.31-3.49c0-1.11.11-2.16.32-3.16.22-.99.58-1.86,1.1-2.61.52-.74,1.2-1.34,2.05-1.78s1.9-.67,3.16-.67,2.29.2,3.12.59,1.5.96,2,1.68.85,1.6,1.06,2.62c.21,1.02.31,2.15.31,3.4,0,1.13-.11,2.21-.32,3.21Z"/><path class="cls-2" d="M261.69,378.9c-.18-.17-.48-.37-.93-.6-.44-.23-1-.45-1.67-.65-.67-.2-1.45-.37-2.35-.51s-1.89-.21-2.98-.21c-1.99,0-3.79.29-5.41.86-1.62.57-3,1.4-4.14,2.48-1.14,1.08-2.03,2.39-2.65,3.94s-.94,3.28-.94,5.23.29,3.56.88,5.04c.58,1.48,1.43,2.74,2.53,3.77s2.45,1.82,4.04,2.36,3.39.81,5.41.81c.69,0,1.37-.03,2.06-.09.68-.06,1.36-.15,2.03-.27s1.32-.27,1.94-.44,1.15-.34,1.57-.49c.42-.16.7-.38.84-.65.14-.28.2-.59.2-.96v-9.43c0-.24-.03-.46-.1-.65-.07-.19-.16-.35-.28-.48s-.27-.23-.43-.3-.35-.1-.56-.1h-8.52c-.12,0-.22.03-.31.1-.09.07-.17.17-.23.31-.06.14-.11.33-.15.56-.03.23-.05.52-.05.86,0,.66.06,1.13.19,1.4.13.28.31.41.55.41h4.78v5.49c-.48.24-1,.43-1.56.55-.56.12-1.12.18-1.69.18-1.17,0-2.24-.18-3.21-.53s-1.8-.88-2.48-1.57c-.69-.7-1.23-1.56-1.61-2.59s-.57-2.22-.57-3.58c0-1.23.19-2.36.56-3.38s.92-1.89,1.62-2.62,1.55-1.29,2.53-1.68c.99-.4,2.09-.59,3.31-.59,1.14,0,2.15.11,3.01.33s1.61.46,2.23.71,1.12.49,1.5.71c.38.22.65.33.82.33.12,0,.22-.03.3-.09s.16-.17.22-.32c.06-.15.1-.36.14-.61.03-.25.05-.56.05-.91,0-.61-.04-1.07-.12-1.38-.08-.31-.2-.55-.38-.72Z"/><path class="cls-2" d="M271.58,377.42c-.19-.06-.45-.11-.78-.15-.32-.04-.74-.06-1.25-.06s-.9.02-1.23.06c-.33.04-.59.08-.79.15-.2.06-.34.14-.43.24s-.13.21-.13.33v22.37c0,.12.04.23.13.33s.22.18.42.24c.2.06.46.11.79.15.33.04.74.05,1.24.05s.92-.02,1.25-.05c.33-.04.59-.09.78-.15.2-.06.33-.14.42-.24s.13-.21.13-.33v-22.37c0-.12-.04-.23-.13-.33s-.22-.18-.42-.24Z"/><path class="cls-2" d="M290.48,389.6c-.51-.52-1.08-.96-1.73-1.34s-1.31-.71-1.99-1-1.34-.57-1.99-.83-1.23-.54-1.74-.84-.92-.64-1.23-1.02c-.31-.38-.46-.84-.46-1.36,0-.35.07-.69.2-1.01.14-.32.34-.59.62-.81s.63-.4,1.04-.53c.42-.13.9-.19,1.46-.19.71,0,1.37.08,1.97.25.6.16,1.12.35,1.58.55.46.2.84.39,1.15.56s.54.26.68.26.26-.04.34-.11.15-.19.19-.35c.05-.16.08-.36.1-.6.02-.24.03-.54.03-.9,0-.32,0-.58-.02-.8s-.04-.39-.07-.53-.07-.25-.12-.34-.13-.19-.26-.31-.4-.27-.8-.46-.86-.35-1.38-.49c-.52-.15-1.08-.26-1.67-.35-.6-.09-1.2-.13-1.79-.13-1.16,0-2.25.14-3.28.42-1.03.28-1.93.7-2.69,1.27-.76.57-1.36,1.28-1.81,2.14-.45.86-.67,1.86-.67,2.99,0,.99.16,1.84.47,2.54.31.71.72,1.32,1.22,1.84s1.07.96,1.71,1.34c.64.37,1.29.71,1.97,1s1.33.57,1.97.83c.64.26,1.21.54,1.71.84s.91.64,1.22,1.02c.31.38.47.85.47,1.38,0,.46-.09.88-.27,1.26-.18.38-.44.69-.79.95-.34.25-.76.45-1.26.59s-1.05.21-1.68.21c-.95,0-1.78-.1-2.5-.3-.72-.2-1.34-.42-1.86-.67s-.94-.47-1.28-.67c-.33-.2-.59-.3-.77-.3-.13,0-.24.03-.34.1-.1.07-.18.18-.23.34-.06.16-.1.37-.13.62-.03.25-.04.57-.04.95,0,.56.03.99.11,1.29s.19.53.36.69.44.34.83.55c.38.21.86.41,1.43.6.57.19,1.23.35,1.98.48s1.56.2,2.43.2c1.29,0,2.49-.16,3.63-.48,1.13-.32,2.12-.79,2.96-1.42.84-.63,1.51-1.41,2.01-2.35.49-.94.74-2.03.74-3.28,0-.95-.16-1.78-.47-2.48s-.72-1.31-1.23-1.83Z"/><path class="cls-2" d="M311.89,377.76c-.06-.15-.15-.26-.24-.33-.1-.07-.21-.1-.32-.1h-17.77c-.13,0-.24.03-.33.1s-.17.18-.23.33-.11.36-.15.61c-.03.25-.05.57-.05.93s.02.66.05.91.08.45.15.6.14.27.23.34.2.11.33.11h6.31v19.09c0,.12.04.23.13.33s.22.18.42.24c.19.06.46.11.79.15.33.04.74.05,1.24.05s.91-.02,1.24-.05c.33-.04.59-.09.79-.15.19-.06.33-.14.42-.24s.13-.21.13-.33v-19.09h6.31c.12,0,.22-.04.32-.11.1-.07.18-.19.24-.34s.11-.35.15-.6.05-.55.05-.91-.02-.68-.05-.93c-.03-.26-.08-.46-.15-.61Z"/><path class="cls-2" d="M319.27,377.42c-.19-.06-.45-.11-.78-.15-.32-.04-.74-.06-1.25-.06s-.9.02-1.23.06c-.33.04-.59.08-.79.15-.2.06-.34.14-.43.24s-.13.21-.13.33v22.37c0,.12.04.23.13.33s.22.18.42.24c.2.06.46.11.79.15.33.04.74.05,1.24.05s.92-.02,1.25-.05c.33-.04.59-.09.78-.15.2-.06.33-.14.42-.24s.13-.21.13-.33v-22.37c0-.12-.04-.23-.13-.33s-.22-.18-.42-.24Z"/><path class="cls-2" d="M342.19,395.76c-.05-.15-.12-.24-.19-.29-.08-.05-.18-.07-.31-.07-.17,0-.41.1-.71.29-.31.2-.69.42-1.17.66-.47.24-1.04.47-1.71.67-.66.2-1.45.3-2.36.3-1,0-1.9-.16-2.7-.48-.8-.32-1.48-.81-2.05-1.47-.57-.66-1-1.5-1.31-2.52s-.46-2.22-.46-3.61c0-1.27.14-2.41.43-3.42.29-1.01.71-1.88,1.26-2.59.55-.71,1.22-1.26,2.01-1.65.79-.38,1.68-.58,2.68-.58.91,0,1.69.11,2.35.32s1.22.45,1.7.71.86.5,1.16.71c.3.21.55.32.74.32.12,0,.22-.04.31-.11.09-.07.17-.19.23-.35.06-.16.11-.37.14-.62s.04-.57.04-.93c0-.34,0-.63-.03-.86-.02-.23-.05-.43-.09-.6-.04-.17-.09-.31-.16-.42s-.19-.25-.36-.41-.48-.36-.93-.59c-.44-.23-.94-.44-1.49-.61s-1.15-.32-1.8-.43c-.65-.11-1.33-.17-2.03-.17-1.73,0-3.31.28-4.75.82s-2.67,1.35-3.69,2.42-1.83,2.37-2.4,3.93c-.57,1.56-.86,3.35-.86,5.36s.26,3.71.78,5.2c.52,1.49,1.27,2.73,2.24,3.72s2.16,1.74,3.55,2.24,2.95.75,4.68.75c.88,0,1.71-.07,2.46-.2.76-.13,1.44-.3,2.03-.5.59-.2,1.09-.41,1.5-.63.41-.22.69-.4.83-.54s.25-.27.31-.37.12-.24.16-.39.07-.34.09-.55c.02-.21.03-.47.03-.78,0-.44-.01-.79-.04-1.05s-.06-.47-.12-.61Z"/><path class="cls-2" d="M360.11,391.43c-.31-.7-.72-1.31-1.23-1.83-.51-.52-1.08-.96-1.73-1.34s-1.31-.71-1.99-1-1.34-.57-1.99-.83-1.23-.54-1.74-.84-.92-.64-1.23-1.02c-.31-.38-.46-.84-.46-1.36,0-.35.07-.69.2-1.01.14-.32.34-.59.62-.81s.63-.4,1.04-.53c.42-.13.9-.19,1.46-.19.71,0,1.37.08,1.97.25.6.16,1.12.35,1.58.55.46.2.84.39,1.15.56s.54.26.68.26.26-.04.34-.11.15-.19.19-.35c.05-.16.08-.36.1-.6.02-.24.03-.54.03-.9,0-.32,0-.58-.02-.8s-.04-.39-.07-.53-.07-.25-.12-.34-.13-.19-.26-.31-.4-.27-.8-.46-.86-.35-1.38-.49c-.52-.15-1.08-.26-1.67-.35-.6-.09-1.2-.13-1.79-.13-1.16,0-2.25.14-3.28.42-1.03.28-1.93.7-2.69,1.27-.76.57-1.36,1.28-1.81,2.14-.45.86-.67,1.86-.67,2.99,0,.99.16,1.84.47,2.54.31.71.72,1.32,1.22,1.84s1.07.96,1.71,1.34c.64.37,1.29.71,1.97,1s1.33.57,1.97.83c.64.26,1.21.54,1.71.84s.91.64,1.22,1.02c.31.38.47.85.47,1.38,0,.46-.09.88-.27,1.26-.18.38-.44.69-.79.95-.34.25-.76.45-1.26.59s-1.05.21-1.68.21c-.95,0-1.78-.1-2.5-.3-.72-.2-1.34-.42-1.86-.67s-.94-.47-1.28-.67c-.33-.2-.59-.3-.77-.3-.13,0-.24.03-.34.1-.1.07-.18.18-.23.34-.06.16-.1.37-.13.62-.03.25-.04.57-.04.95,0,.56.03.99.11,1.29s.19.53.36.69.44.34.83.55c.38.21.86.41,1.43.6.57.19,1.23.35,1.98.48s1.56.2,2.43.2c1.29,0,2.49-.16,3.63-.48,1.13-.32,2.12-.79,2.96-1.42.84-.63,1.51-1.41,2.01-2.35.49-.94.74-2.03.74-3.28,0-.95-.16-1.78-.47-2.48Z"/></g></g></svg>