<?xml version="1.0" encoding="UTF-8"?><svg xmlns="http://www.w3.org/2000/svg" xmlns:xlink="http://www.w3.org/1999/xlink" viewBox="0 0 428.85 373.71"><defs><style>.cls-1{fill:url(#linear-gradient-2);}.cls-2{fill:#fff;}.cls-3{fill:url(#linear-gradient-6);}.cls-3,.cls-4{mix-blend-mode:screen;}.cls-5{fill:url(#linear-gradient-4);}.cls-6{fill:url(#linear-gradient-3);}.cls-7{fill:url(#linear-gradient-5);}.cls-4{fill:url(#linear-gradient-8);}.cls-8{isolation:isolate;}.cls-9{fill:url(#linear-gradient-7);}.cls-10{fill:url(#linear-gradient);}</style><linearGradient id="linear-gradient" x1="130.14" y1="195.19" x2="247.35" y2="195.19" gradientUnits="userSpaceOnUse"><stop offset="0" stop-color="#418ecc"/><stop offset="1" stop-color="#71cbd2"/></linearGradient><linearGradient id="linear-gradient-2" x1="108.11" y1="108.01" x2="281.24" y2="108.01" xlink:href="#linear-gradient"/><linearGradient id="linear-gradient-3" x1="72.11" y1="145.2" x2="339.9" y2="145.2" gradientUnits="userSpaceOnUse"><stop offset="0" stop-color="#3662ae"/><stop offset="1" stop-color="#cf7db4"/></linearGradient><linearGradient id="linear-gradient-4" x1="281.95" y1="222.34" x2="74.02" y2="222.34" gradientUnits="userSpaceOnUse"><stop offset="0" stop-color="#3b4fa2"/><stop offset="1" stop-color="#cf7db4"/></linearGradient><linearGradient id="linear-gradient-5" x1="94.09" y1="168.12" x2="328.27" y2="168.12" gradientUnits="userSpaceOnUse"><stop offset="0" stop-color="#41c5e7"/><stop offset="1" stop-color="#65c9d5"/></linearGradient><linearGradient id="linear-gradient-6" x1="306.53" y1="156.92" x2="15.96" y2="156.92" xlink:href="#linear-gradient-5"/><linearGradient id="linear-gradient-7" x1="206.75" y1="124.39" x2="376.04" y2="124.39" xlink:href="#linear-gradient-3"/><linearGradient id="linear-gradient-8" x1="233.23" y1="159.08" x2="362.02" y2="106.38" xlink:href="#linear-gradient-3"/></defs><g class="cls-8"><g id="Layer_1"><path class="cls-2" d="M15.38,356.42l.76-5.26c3.5,0,6.41.42,8.74,1.27,2.32.84,4.06,2.02,5.22,3.54,1.16,1.52,1.74,3.36,1.74,5.51,0,4.09-1.52,7.13-4.56,9.12-3.04,1.98-7.37,2.98-12.98,2.98-1.01,0-2.16-.04-3.45-.13-1.29-.09-2.6-.23-3.93-.44-1.33-.21-2.54-.51-3.64-.89-2.19-.8-3.29-2.22-3.29-4.24v-30.26c0-.8.23-1.43.7-1.9s1.08-.82,1.84-1.08c1.43-.51,3.17-.86,5.22-1.08,2.05-.21,4.15-.32,6.3-.32,5.23,0,9.27.91,12.12,2.72,2.85,1.81,4.27,4.56,4.27,8.23,0,2.03-.59,3.76-1.77,5.19-1.18,1.44-2.9,2.53-5.16,3.29-2.26.76-4.99,1.14-8.2,1.14l-.44-4.24c2.03,0,3.52-.4,4.5-1.2.97-.8,1.46-1.94,1.46-3.42,0-1.39-.56-2.47-1.68-3.23-1.12-.76-2.8-1.14-5.03-1.14-.8,0-1.65.03-2.53.1s-1.62.16-2.22.28v24.63c.72.17,1.59.3,2.63.38,1.03.09,2.02.13,2.94.13,2.11,0,3.81-.41,5.1-1.23,1.29-.82,1.93-2.08,1.93-3.77s-.55-2.78-1.65-3.54c-1.1-.76-2.74-1.14-4.94-1.14ZM20.13,349.59v6.84H6.01v-6.84h14.12Z"/><path class="cls-2" d="M74.36,364.59c-1.75,3-4.2,5.24-7.34,6.74-3.14,1.5-6.83,2.25-11.05,2.25-1.39,0-3.1-.09-5.13-.28-2.03-.19-3.86-.58-5.51-1.17-2.19-.8-3.29-2.22-3.29-4.24v-30.26c0-.84.23-1.49.7-1.93.46-.44,1.08-.81,1.84-1.11,1.69-.55,3.5-.91,5.44-1.08,1.94-.17,3.71-.25,5.32-.25,4.35,0,8.14.73,11.36,2.18,3.23,1.46,5.75,3.66,7.57,6.62,1.81,2.95,2.72,6.69,2.72,11.2s-.88,8.34-2.63,11.33ZM65.62,346.48c-.95-1.81-2.26-3.17-3.93-4.08-1.67-.91-3.6-1.36-5.79-1.36-.76,0-1.49.03-2.18.1-.7.06-1.4.14-2.12.22v23.99c.63.13,1.35.22,2.15.28.8.06,1.56.09,2.28.09,3.33,0,6-1.03,8.01-3.1,2-2.07,3.01-5.13,3.01-9.18,0-2.83-.48-5.15-1.42-6.96Z"/><path class="cls-2" d="M114.46,365.86c2.28,0,3.91-.41,4.91-1.24.99-.82,1.49-1.8,1.49-2.94,0-1.05-.39-1.91-1.17-2.56-.78-.65-1.93-1.21-3.45-1.68l-3.36-1.08c-2.28-.76-4.29-1.6-6.05-2.53-1.75-.93-3.1-2.13-4.05-3.61-.95-1.48-1.42-3.36-1.42-5.63,0-3.5,1.33-6.29,3.99-8.36,2.66-2.07,6.35-3.1,11.08-3.1,2.41,0,4.55.23,6.43.7,1.88.46,3.36,1.15,4.43,2.06,1.08.91,1.61,2.02,1.61,3.32,0,.97-.22,1.8-.66,2.5-.44.7-1,1.3-1.68,1.8-.97-.67-2.26-1.26-3.86-1.74-1.6-.48-3.38-.73-5.32-.73s-3.55.33-4.56.98-1.52,1.51-1.52,2.56c0,.84.34,1.53,1.01,2.06.67.53,1.69,1,3.04,1.42l3.48,1.08c3.84,1.18,6.79,2.75,8.86,4.72,2.07,1.96,3.1,4.59,3.1,7.88,0,3.54-1.37,6.43-4.12,8.64-2.74,2.22-6.71,3.32-11.9,3.32-2.57,0-4.87-.28-6.9-.82-2.03-.55-3.64-1.35-4.84-2.41s-1.8-2.28-1.8-3.67c0-1.1.33-2.04.98-2.82.65-.78,1.38-1.36,2.18-1.74,1.14.93,2.56,1.76,4.27,2.5s3.64,1.11,5.79,1.11Z"/><path class="cls-2" d="M150.23,358.01h-9.62v-23.87c.42-.09,1.07-.19,1.93-.32.86-.13,1.7-.19,2.5-.19,1.86,0,3.19.32,3.99.95.8.63,1.2,1.84,1.2,3.61v19.82ZM140.61,345.85h9.62v26.72c-.38.13-.99.24-1.84.35-.84.11-1.71.16-2.6.16-1.9,0-3.24-.34-4.02-1.01-.78-.67-1.17-1.86-1.17-3.55v-22.66ZM169.73,357.18h-24.75v-7.66h24.75v7.66ZM173.91,358.01h-9.69v-23.87c.46-.09,1.12-.19,1.96-.32s1.69-.19,2.53-.19c1.81,0,3.13.33,3.96.98.82.66,1.23,1.87,1.23,3.64v19.75ZM164.22,345.85h9.69v26.72c-.42.13-1.05.24-1.9.35s-1.71.16-2.6.16c-1.9,0-3.24-.34-4.02-1.01-.78-.67-1.17-1.86-1.17-3.55v-22.66Z"/><path class="cls-2" d="M195.68,358.01h-9.62v-23.87c.42-.09,1.07-.19,1.93-.32.86-.13,1.72-.19,2.56-.19,1.81,0,3.12.32,3.93.95.8.63,1.2,1.84,1.2,3.61v19.82ZM186.06,345.85h9.62v26.72c-.38.13-.99.24-1.84.35-.84.11-1.71.16-2.6.16-1.9,0-3.24-.34-4.02-1.01-.78-.67-1.17-1.86-1.17-3.55v-22.66Z"/><path class="cls-2" d="M221.89,360.29h-13.99v-22.66c0-.8.23-1.43.7-1.9s1.08-.82,1.84-1.08c1.39-.51,3.06-.86,5-1.08,1.94-.21,3.69-.32,5.25-.32,5.7,0,10.01,1.21,12.95,3.64,2.93,2.43,4.4,5.73,4.4,9.91,0,2.7-.64,5.06-1.93,7.09s-3.13,3.6-5.54,4.72-5.3,1.68-8.67,1.68ZM207.9,356.04h9.62v16.52c-.38.13-.99.24-1.84.35-.84.11-1.71.16-2.6.16-1.9,0-3.24-.34-4.02-1.01-.78-.67-1.17-1.86-1.17-3.55v-12.47ZM217.46,352.69h3.8c2.15,0,3.85-.51,5.1-1.52,1.24-1.01,1.87-2.47,1.87-4.37s-.59-3.33-1.77-4.3c-1.18-.97-2.89-1.46-5.13-1.46-.76,0-1.45.02-2.06.06-.61.04-1.21.11-1.8.19v11.4Z"/><path class="cls-2" d="M288.87,363.07c-.46.38-1.09.7-1.87.95-.78.25-1.68.38-2.69.38-1.31,0-2.41-.17-3.29-.51-.89-.34-1.46-.91-1.71-1.71-1.44-4.01-2.65-7.34-3.64-10-.99-2.66-1.76-4.96-2.31-6.9h-.32c-.13,2.66-.23,5.09-.32,7.28-.09,2.19-.15,4.34-.19,6.43-.04,2.09-.11,4.21-.19,6.36-.09,2.15-.21,4.52-.38,7.09-.46.13-1.09.27-1.87.44-.78.17-1.55.25-2.31.25-1.6,0-2.86-.27-3.77-.82-.91-.55-1.36-1.5-1.36-2.85,0-.93.05-2.31.16-4.15.1-1.84.23-3.95.38-6.33.15-2.38.29-4.91.44-7.57.15-2.66.32-5.29.51-7.88.19-2.6.37-4.99.54-7.19.34-.51,1.01-1.02,2.03-1.55,1.01-.53,2.4-.79,4.18-.79,1.9,0,3.43.31,4.59.92,1.16.61,1.99,1.61,2.5,3.01.63,1.52,1.31,3.28,2.02,5.29.72,2.01,1.42,4.03,2.12,6.08.7,2.05,1.34,3.89,1.93,5.54h.32c1.18-3.71,2.39-7.34,3.64-10.89,1.24-3.54,2.31-6.5,3.2-8.86.59-.34,1.34-.6,2.25-.79.91-.19,1.87-.28,2.88-.28,1.81,0,3.28.26,4.4.79,1.12.53,1.78,1.32,1.99,2.37.17.8.35,2.07.54,3.8.19,1.73.39,3.72.6,5.98.21,2.26.42,4.62.63,7.09s.41,4.88.6,7.22c.19,2.34.35,4.44.48,6.3s.21,3.33.25,4.43c-.63.38-1.3.67-1.99.86-.7.19-1.57.28-2.63.28-1.35,0-2.5-.25-3.45-.76-.95-.51-1.47-1.48-1.55-2.91-.21-3.29-.38-6.43-.51-9.4s-.22-5.7-.28-8.17-.14-4.59-.22-6.36h-.32c-.55,1.81-1.32,4.1-2.31,6.87s-2.23,6.32-3.7,10.67Z"/><path class="cls-2" d="M332.62,342.24h-.38c-.42,1.35-.92,2.85-1.49,4.5s-1.15,3.37-1.74,5.16-1.16,3.58-1.71,5.35l-1.14,5.7c-.25.8-.5,1.65-.73,2.53s-.48,1.75-.73,2.6c-.25.84-.49,1.65-.7,2.41s-.42,1.48-.63,2.15c-.46.13-.99.26-1.58.41-.59.15-1.29.22-2.09.22-1.77,0-3.12-.32-4.05-.95-.93-.63-1.39-1.56-1.39-2.78,0-.51.07-1.03.22-1.58.15-.55.33-1.18.54-1.9.38-1.39.92-3.14,1.61-5.25.7-2.11,1.46-4.4,2.28-6.87s1.67-4.91,2.53-7.31c.86-2.41,1.67-4.62,2.4-6.65.74-2.03,1.34-3.61,1.8-4.75.59-.38,1.53-.73,2.82-1.04s2.56-.47,3.83-.47c1.81,0,3.44.26,4.88.79,1.43.53,2.34,1.36,2.72,2.5.8,2.24,1.68,4.82,2.63,7.76.95,2.93,1.91,6,2.88,9.21.97,3.21,1.91,6.32,2.82,9.34.91,3.02,1.7,5.73,2.37,8.14-.46.51-1.14.94-2.03,1.3s-1.94.54-3.16.54c-1.73,0-2.95-.32-3.67-.95-.72-.63-1.27-1.58-1.65-2.85l-2.03-7.09-1.08-5.38c-.51-1.9-1.03-3.74-1.58-5.51-.55-1.77-1.06-3.45-1.52-5.03-.46-1.58-.89-2.99-1.27-4.21ZM321.92,364.08l3.74-7.47h14.81l1.27,7.47h-19.82Z"/><path class="cls-2" d="M374.09,359.72h-14.56v-22.09c0-.8.23-1.43.7-1.9.46-.46,1.08-.82,1.84-1.08,1.39-.51,3.03-.86,4.91-1.08,1.88-.21,3.83-.32,5.86-.32,5.7,0,9.98,1.19,12.85,3.58,2.87,2.38,4.3,5.62,4.3,9.72,0,2.53-.69,4.8-2.06,6.81-1.37,2.01-3.25,3.57-5.63,4.68-2.39,1.12-5.12,1.68-8.2,1.68ZM359.52,356.11h9.62v16.46c-.38.13-.99.24-1.84.35-.84.11-1.71.16-2.6.16-1.9,0-3.24-.34-4.02-1.01-.78-.67-1.17-1.86-1.17-3.55v-12.41ZM369.08,352.25h4.12c2.11,0,3.81-.48,5.1-1.42s1.93-2.35,1.93-4.21-.61-3.2-1.84-4.15c-1.22-.95-3.1-1.42-5.63-1.42-.72,0-1.37.02-1.96.06-.59.04-1.16.13-1.71.25v10.89ZM372.31,357.44l8.61-2.03c.97,1.35,1.97,2.68,3.01,3.99,1.03,1.31,2.03,2.57,2.98,3.8.95,1.22,1.8,2.35,2.56,3.39s1.37,1.91,1.84,2.63c-.38,1.27-1.05,2.25-2.03,2.94-.97.7-2.07,1.04-3.29,1.04-1.56,0-2.75-.35-3.58-1.04-.82-.7-1.59-1.61-2.31-2.75l-7.79-11.96Z"/><path class="cls-2" d="M417.26,334.27l.06,7.72h-19.56c-.29-.38-.54-.91-.73-1.58-.19-.67-.28-1.39-.28-2.15,0-1.39.31-2.4.92-3.04.61-.63,1.42-.95,2.44-.95h17.16ZM407.83,340.28h9.69v32.29c-.42.13-1.06.24-1.9.35-.84.11-1.71.16-2.6.16-1.9,0-3.24-.34-4.02-1.01-.78-.67-1.17-1.86-1.17-3.55v-28.24ZM408.33,341.99l-.06-7.72h19.56c.25.38.48.91.7,1.58s.32,1.39.32,2.15c0,1.35-.31,2.35-.92,3.01s-1.45.98-2.5.98h-17.09Z"/><path class="cls-10" d="M141.59,186.46l105.77,4.48c-14.73,11.41-33.23,18.19-53.31,18.19-25.25,0-47.99-10.73-63.9-27.87l11.44,5.2Z"/><path class="cls-1" d="M281.24,121.93c0,18.25-5.6,35.19-15.18,49.18-.48-.01-.95-.01-1.43,0-16.12.54-22.96,10.17-22.96,10.17-3.06-12.05-14.75-24.83-37.22-28.07-18.46-2.66-32.85,8.39-32.85,8.39,3.08-15.06-4.87-42.71-29.77-52.4-12.82-4.99-24.95-4.1-33.72-2.06,7-41.1,42.82-72.41,85.93-72.41,48.16,0,87.2,39.05,87.2,87.2Z"/><path class="cls-6" d="M245.84,213.2c-15.27,8.69-32.95,13.65-51.79,13.65-57.95,0-104.92-46.97-104.92-104.92S136.1,17.01,194.04,17.01c0,0,4.46-.27,11.71.32,45.55,5.25,82.2,39.74,90.61,84.25l43.53-19.79-27.84,9.5C298.47,38.78,250.81,0,194.04,0c-.06,0-.12,0-.18,0-.07,0-.14,0-.21,0-35.53,0-67.48,15.32-89.64,39.7-.13.14-.25.28-.38.41-1.03,1.14-2.03,2.3-3.01,3.47-.28.34-.57.67-.85,1.01-.32.39-.62.79-.93,1.18-16.72,20.87-26.74,47.33-26.74,76.15,0,33.39,13.43,63.63,35.16,85.65h-.03l1.84,1.87s.07.07.1.1c.13.13.27.26.41.4.58.54,1.29,1.22,2.14,2.01.84.78,1.81,1.56,2.91,2.5.55.47,1.12.95,1.73,1.46.64.48,1.3.99,2.01,1.52.69.54,1.42,1.09,2.17,1.66.77.55,1.59,1.09,2.42,1.66.84.57,1.7,1.16,2.59,1.77.92.55,1.87,1.12,2.85,1.72,1.91,1.23,4.05,2.33,6.25,3.52,4.45,2.27,9.39,4.57,14.82,6.49,2.68,1.04,5.53,1.84,8.42,2.76,2.92.78,5.9,1.62,8.99,2.23,6.15,1.3,12.6,2.31,19.21,2.71,1.64.17,3.3.17,4.98.24l2.5.1c.79.01,1.69-.01,2.51-.01,1.57,0,3.39-.1,5.02-.2l2.48-.21,2.48-.31c13.28-1.77,26.05-7,36.49-14.11,2.61-1.76,5.09-3.66,7.56-5.52,2.45-1.83,4.86-3.64,7.2-5.39,4.69-3.52,9.12-6.83,13.2-9.9,14.82-11.09,25.15-18.83,26.97-20.19-1.77,1.4-11.91,9.41-26.43,20.9-4,3.16-8.34,6.59-12.93,10.22-2.3,1.81-4.65,3.69-7.06,5.59-2.41,1.9-4.85,3.88-7.49,5.76-10.46,7.51-23.39,13.26-37.09,15.44l-2.58.38-2.61.3c-1.74.16-3.33.28-5.15.34-.86.03-1.66.07-2.58.07l-2.55-.03c-1.72-.03-3.42.01-5.1-.11-6.79-.23-13.43-1.09-19.79-2.27-3.19-.55-6.28-1.33-9.32-2.06-3.01-.86-5.95-1.62-8.76-2.62-5.66-1.84-10.85-4.08-15.54-6.32-.88-.45-1.74-.89-2.59-1.33l54.6,55.71c5.23,5.33,13.8,5.33,19.03,0l77.28-78.83,2.33-2.45,32.06-32.58s-68.18,39.97-69.32,40.61l-.07.04Z"/><path class="cls-5" d="M297.5,186.46l-60.29,53.59s-21.55,18.16-43.56,18.16h-.03c-24.81.27-43.95-7.36-43.95-7.36l-19.75-20.15c.85.44,1.72.88,2.59,1.33,4.69,2.24,9.88,4.48,15.54,6.32,2.81,1.01,5.76,1.76,8.76,2.62,3.03.72,6.12,1.5,9.32,2.06,6.37,1.18,13,2.04,19.79,2.27,1.69.13,3.39.09,5.1.11l2.55.03c.92,0,1.72-.04,2.58-.07,1.81-.06,3.4-.18,5.15-.34l2.61-.3,2.58-.38c13.7-2.18,26.63-7.93,37.09-15.44,2.64-1.87,5.08-3.86,7.49-5.76,2.41-1.9,4.76-3.77,7.06-5.59,4.59-3.63,8.93-7.06,12.93-10.22,13.16-10.41,22.71-17.96,25.7-20.33l.52-.41h0s.2-.16.2-.16Z"/><path class="cls-7" d="M328.27,160.37l-78.82,45.31c-2.4,1.5-7.19,3.86-9.71,5.16l-.16.09c-13.65,7-29.14,10.96-45.54,10.96-55.21,0-99.96-44.75-99.96-99.96,0,0,19.01-12.04,43.07-5.76,38.62,10.11,29.24,54.59,29.24,54.59,0,0,13.43-15.3,41.83-10.28,27.65,4.88,32.61,29.07,32.61,29.07,0,0,4.79-9.39,17.37-13.3,8.27-2.55,15.61-1.15,19.68.11,2.13.67,3.36,1.29,3.36,1.29l47.03-17.28Z"/><path class="cls-3" d="M328.27,160.37l-45.08,20.88s-7.46-5.12-21.8-1.46c-13.23,3.37-21.62,19.68-21.62,19.68,0,0-7.94-25.1-32.61-31.35-32.84-8.32-49.62,20.01-49.62,20.01,0,0,9.04-27.65-7.27-52.81-16.3-25.17-56.18-13.38-56.18-13.38,0,0,19.01-12.04,43.07-5.76,38.62,10.11,29.24,54.59,29.24,54.59,0,0,13.43-15.3,41.83-10.28,27.65,4.88,32.61,29.07,32.61,29.07,0,0,4.79-9.39,17.37-13.3,8.27-2.55,15.61-1.15,19.68.11,2.13.67,3.36,1.29,3.36,1.29l47.03-17.28Z"/><path class="cls-9" d="M375.81,101.3c-1.04,3.5-6.03,8.07-19.92,13.57-4.68,1.84-15.78,5.97-29.35,10.96l-28.81,26.61-3.84,1.59,7.37-17.38,12.49-6.14c-5.74,2.1-63.66,23.17-71.23,25.89-1.42.54-2.95.65-4.44.38l-30.34-5.57c-.38-.09-.65-.45-.6-.85l.06-.4.11-.79c.06-.38.4-.65.75-.64l12.68.34-13.84-13.44c-.27-.27-.17-.71.17-.84l6.17-2.17c.62-.23,1.3-.24,1.94-.06,3.45,1.08,15.24,4.79,24.58,8.04,1.53.16,13.61-5.52,29.21-13.04l6.64,1.29-44.58-15.02c-.28-.09-.29-.48-.02-.59l5.08-2.16c.27-.11.56-.16.85-.15l59.29,3.5c18.29-8.76,36.41-16.89,45.87-20.52,6.19-2.37,10.26-2.13,16.15-1.16,5.38,0,11.65.84,14.36,2.04,2.11.93,4.13,3.59,3.2,6.71Z"/><path class="cls-4" d="M375.81,101.3c-1.04,3.5-6.03,8.07-19.92,13.57-4.68,1.84-15.78,5.97-29.35,10.96l-28.81,26.61-3.84,1.59,7.37-17.38,12.49-6.14c-5.74,2.1-63.66,23.17-71.23,25.89-1.42.54-2.95.65-4.44.38l-30.34-5.57c-.38-.09-.65-.45-.6-.85l.06-.4s30.74,5.56,32.33,5.5c1.6-.06,122.36-46.02,122.36-46.02,0,0,11.26-4.23,13.92-8.14Z"/></g></g></svg>