<?xml version="1.0" encoding="UTF-8"?><svg xmlns="http://www.w3.org/2000/svg" width="480" height="417.65" xmlns:xlink="http://www.w3.org/1999/xlink" viewBox="0 0 480 417.65"><defs><style>.cls-1{fill:url(#linear-gradient-2);}.cls-2{fill:#fff;}.cls-3{fill:url(#linear-gradient-4);}.cls-4{fill:url(#linear-gradient-3);}.cls-5{isolation:isolate;}.cls-6{fill:url(#New_Gradient_Swatch_1-2);}.cls-7,.cls-8,.cls-9{mix-blend-mode:screen;}.cls-8{fill:url(#New_Gradient_Swatch_1-3);}.cls-10{fill:url(#linear-gradient);}.cls-11{fill:url(#New_Gradient_Swatch_1);}.cls-9{fill:url(#linear-gradient-5);}</style><linearGradient id="linear-gradient" x1="180.35" y1="174.16" x2="279.75" y2="174.16" gradientUnits="userSpaceOnUse"><stop offset="0" stop-color="#418ecc"/><stop offset="1" stop-color="#71cbd2"/></linearGradient><linearGradient id="linear-gradient-2" x1="161.67" y1="100.23" x2="308.48" y2="100.23" gradientUnits="userSpaceOnUse"><stop offset="0" stop-color="#ed2024"/><stop offset="1" stop-color="#fbb040"/></linearGradient><linearGradient id="linear-gradient-3" x1="131.14" y1="131.77" x2="358.23" y2="131.77" gradientUnits="userSpaceOnUse"><stop offset="0" stop-color="#0c5545"/><stop offset="1" stop-color="#1bb895"/></linearGradient><linearGradient id="New_Gradient_Swatch_1" x1="309.09" y1="197.18" x2="132.76" y2="197.18" gradientUnits="userSpaceOnUse"><stop offset="0" stop-color="#0c5545"/><stop offset="1" stop-color="#1bb895"/></linearGradient><linearGradient id="linear-gradient-4" x1="149.78" y1="151.21" x2="348.37" y2="151.21" gradientUnits="userSpaceOnUse"><stop offset="0" stop-color="#00adb5"/><stop offset=".41" stop-color="#00adb7"/><stop offset=".66" stop-color="#00adbf"/><stop offset=".87" stop-color="#00adce"/><stop offset="1" stop-color="#00addc"/></linearGradient><linearGradient id="linear-gradient-5" x1="329.93" y1="141.71" x2="83.52" y2="141.71" gradientUnits="userSpaceOnUse"><stop offset="0" stop-color="#41c5e7"/><stop offset="1" stop-color="#65c9d5"/></linearGradient><linearGradient id="New_Gradient_Swatch_1-2" x1="245.31" y1="114.12" x2="388.88" y2="114.12" xlink:href="#New_Gradient_Swatch_1"/><linearGradient id="New_Gradient_Swatch_1-3" x1="245.64" y1="118.13" x2="388.68" y2="118.13" xlink:href="#New_Gradient_Swatch_1"/></defs><g class="cls-5"><g id="Layer_1"><g class="cls-7"><path class="cls-2" d="M234.54,263.55c-5.39,0-10.44-2.12-14.23-5.97l-65.52-66.87c-20.81-21.08-32.29-49.03-32.29-78.67,0-25.71,8.5-49.9,24.57-69.98.15-.18.25-.31.34-.43.17-.21.33-.42.5-.63.18-.22.35-.42.53-.62l.23-.27c.88-1.05,1.8-2.11,2.77-3.2.08-.09.38-.41.38-.41h0C172.89,13.3,202.93,0,234.21,0h.33c47.94,0,90.18,30.4,105.74,75l15.16-5.17c.92-.31,1.86-.46,2.79-.46,2.67,0,5.26,1.24,6.92,3.47,1.13,1.51,1.7,3.3,1.72,5.1.36-.01.72-.02,1.09-.02,2.34,0,4.53.28,6.57.6,4.63.06,11.05.73,14.95,2.46,6.17,2.73,9.39,9.62,7.49,16.04-1.92,6.55-8.71,11.82-21.99,17.08-3.51,1.38-11.13,4.23-23.27,8.7-3.45,3.46-12.63,12.4-22.23,19.61l15.68-5.76c1.02-.41,2.11-.62,3.22-.62,3.5,0,6.65,2.11,7.98,5.35,1.33,3.23.58,6.95-1.9,9.42l-38.15,37.87s-1.94,2.05-1.98,2.08l-65.55,66.86c-3.79,3.86-8.84,5.98-14.23,5.98Z"/></g><g class="cls-7"><path class="cls-2" d="M371.68,93.73c-2.04-.9-6.76-1.53-10.79-1.53-4.43-.73-7.49-.91-12.15.87-2.84,1.09-6.74,2.73-11.25,4.72,5.63-8.07,9.61-13.68,9.61-13.68l-20.93,7.14c-10.22-39.48-46.05-68.64-88.73-68.64-.05,0-.09,0-.14,0s-.1,0-.15,0c-26.72,0-50.73,11.52-67.39,29.85-.1.11-.19.21-.29.31-.77.86-1.52,1.73-2.26,2.61-.21.26-.44.51-.64.76-.24.29-.47.6-.7.89-12.56,15.69-20.1,35.59-20.1,57.26,0,25.1,10.1,47.84,26.44,64.39l58.08,59.27c3.93,4,10.37,4,14.31,0l58.11-59.27,1.75-1.84,33.91-33.65s-.02,0-.03.02l-35.32,12.98s-.93-.47-2.53-.97c-.87-.27,2.55-6.18,7.89-14.49,12.16-6.42,28.69-23.5,28.69-23.5,10.2-3.75,18.54-6.85,22.06-8.24,10.45-4.13,14.2-7.57,14.97-10.2.7-2.34-.83-4.34-2.4-5.04Z"/></g><path class="cls-10" d="M190.05,166.76l89.69,3.8c-12.49,9.68-28.18,15.43-45.21,15.43-21.41,0-40.7-9.1-54.19-23.64l9.7,4.41Z"/><path class="cls-1" d="M308.48,112.04c0,15.47-4.75,29.84-12.88,41.71-.41-.01-.81-.01-1.21,0-13.67.46-19.47,8.62-19.47,8.62-2.6-10.22-12.5-21.06-31.56-23.8-15.66-2.25-27.85,7.11-27.85,7.11,2.61-12.77-4.13-36.22-25.25-44.44-10.87-4.23-21.16-3.47-28.59-1.74,5.94-34.86,36.31-61.4,72.87-61.4,40.84,0,73.94,33.11,73.94,73.94Z"/><path class="cls-4" d="M278.46,189.43c-12.95,7.37-27.94,11.58-43.92,11.58-49.14,0-88.97-39.83-88.97-88.97S185.4,23.06,234.54,23.06c0,0,3.78-.23,9.93.27,38.63,4.45,69.71,33.7,76.84,71.45l36.92-16.78-23.61,8.06c-11.53-44.53-51.95-77.42-100.08-77.42-.05,0-.1,0-.15,0-.06,0-.12,0-.17,0-30.13,0-57.23,12.99-76.02,33.67-.11.12-.22.23-.32.35-.87.97-1.72,1.95-2.55,2.95-.24.29-.49.56-.72.85-.27.33-.52.67-.79,1-14.18,17.7-22.67,40.14-22.67,64.58,0,28.32,11.39,53.96,29.82,72.63h-.02l1.56,1.59s.06.06.08.08c.11.11.23.22.35.34.49.46,1.09,1.03,1.82,1.71.71.66,1.54,1.32,2.46,2.12.47.4.95.81,1.47,1.24.54.41,1.11.84,1.71,1.29.59.46,1.2.93,1.84,1.41.65.47,1.35.93,2.06,1.41.71.48,1.44.99,2.2,1.5.78.47,1.59.95,2.42,1.45,1.62,1.05,3.44,1.97,5.3,2.98,3.78,1.92,7.96,3.87,12.56,5.51,2.27.88,4.69,1.56,7.14,2.34,2.48.66,5,1.37,7.62,1.89,5.22,1.11,10.69,1.96,16.29,2.3,1.39.14,2.8.14,4.22.2l2.12.08c.67.01,1.43-.01,2.13-.01,1.33,0,2.87-.08,4.26-.17l2.1-.18,2.1-.26c11.27-1.5,22.09-5.94,30.95-11.96,2.21-1.49,4.32-3.1,6.41-4.68,2.08-1.55,4.12-3.09,6.11-4.57,3.98-2.98,7.73-5.8,11.19-8.39,12.56-9.4,21.33-15.97,22.87-17.12-1.5,1.19-10.1,7.98-22.41,17.72-3.39,2.68-7.07,5.59-10.97,8.67-1.95,1.54-3.94,3.13-5.99,4.74-2.04,1.61-4.11,3.29-6.35,4.88-8.87,6.37-19.84,11.24-31.45,13.09l-2.19.32-2.21.25c-1.48.13-2.83.24-4.36.29-.73.02-1.41.06-2.19.06l-2.16-.02c-1.45-.02-2.9.01-4.33-.1-5.76-.19-11.39-.93-16.78-1.92-2.71-.47-5.33-1.13-7.9-1.74-2.55-.73-5.05-1.37-7.43-2.22-4.8-1.56-9.2-3.46-13.18-5.36-.75-.38-1.48-.76-2.2-1.13l46.3,47.24c4.44,4.52,11.7,4.52,16.14,0l65.54-66.85,1.97-2.08,27.18-27.63s-57.82,33.89-58.78,34.44l-.06.04Z"/><path class="cls-11" d="M322.28,166.76l-51.12,45.45s-18.28,15.4-36.94,15.4h-.02c-21.04.23-37.27-6.24-37.27-6.24l-16.75-17.09c.72.37,1.45.75,2.2,1.13,3.98,1.9,8.38,3.8,13.18,5.36,2.38.85,4.88,1.49,7.43,2.22,2.57.61,5.19,1.27,7.9,1.74,5.4,1,11.03,1.73,16.78,1.92,1.43.11,2.87.07,4.33.1l2.16.02c.78,0,1.45-.04,2.19-.06,1.54-.05,2.89-.16,4.36-.29l2.21-.25,2.19-.32c11.61-1.85,22.58-6.72,31.45-13.09,2.24-1.59,4.3-3.27,6.35-4.88,2.04-1.61,4.04-3.2,5.99-4.74,3.9-3.08,7.57-5.99,10.97-8.67,11.16-8.83,19.26-15.23,21.8-17.24l.44-.35h0s.17-.13.17-.13Z"/><path class="cls-3" d="M348.37,144.63l-66.84,38.43c-2.03,1.27-6.1,3.27-8.24,4.38l-.13.07c-11.58,5.94-24.71,9.29-38.62,9.29-46.82,0-84.77-37.95-84.77-84.77,0,0,16.12-10.21,36.53-4.88,32.75,8.57,24.79,46.29,24.79,46.29,0,0,11.39-12.97,35.47-8.72,23.45,4.14,27.65,24.65,27.65,24.65,0,0,4.06-7.96,14.73-11.28,7.01-2.16,13.24-.97,16.69.1,1.8.57,2.85,1.09,2.85,1.09l39.88-14.66Z"/><path class="cls-9" d="M348.37,144.63l-38.23,17.71s-6.32-4.34-18.49-1.24c-11.22,2.86-18.34,16.69-18.34,16.69,0,0-6.73-21.29-27.65-26.58-27.85-7.05-42.08,16.97-42.08,16.97,0,0,7.67-23.45-6.16-44.79-13.83-21.34-47.64-11.35-47.64-11.35,0,0,16.12-10.21,36.53-4.88,32.75,8.57,24.79,46.29,24.79,46.29,0,0,11.39-12.97,35.47-8.72,23.45,4.14,27.65,24.65,27.65,24.65,0,0,4.06-7.96,14.73-11.28,7.01-2.16,13.24-.97,16.69.1,1.8.57,2.85,1.09,2.85,1.09l39.88-14.66Z"/><path class="cls-6" d="M388.68,94.54c-.88,2.97-5.11,6.84-16.89,11.51-3.97,1.56-13.38,5.06-24.89,9.29l-24.43,22.57-3.26,1.35,6.25-14.74,10.59-5.21c-4.87,1.78-53.99,19.65-60.41,21.95-1.2.46-2.5.55-3.76.32l-25.73-4.73c-.32-.07-.55-.38-.5-.72l.05-.34.1-.67c.05-.32.34-.55.64-.54l10.75.29-11.73-11.4c-.23-.23-.14-.6.14-.71l5.23-1.84c.53-.19,1.11-.2,1.65-.05,2.92.91,12.93,4.06,20.85,6.82,1.3.13,11.54-4.68,24.77-11.06l5.63,1.09-37.8-12.74c-.23-.08-.25-.41-.02-.5l4.3-1.84c.23-.1.47-.14.72-.13l50.28,2.97c15.51-7.43,30.88-14.32,38.9-17.4,5.25-2.01,8.7-1.81,13.7-.98,4.56,0,9.88.71,12.18,1.73,1.79.79,3.5,3.04,2.72,5.69Z"/><path class="cls-8" d="M388.68,94.54c-.88,2.97-5.11,6.84-16.89,11.51-3.97,1.56-13.38,5.06-24.89,9.29l-24.43,22.57-3.26,1.35,6.25-14.74,10.59-5.21c-4.87,1.78-53.99,19.65-60.41,21.95-1.2.46-2.5.55-3.76.32l-25.73-4.73c-.32-.07-.55-.38-.5-.72l.05-.34s26.07,4.71,27.41,4.67c1.36-.05,103.76-39.03,103.76-39.03,0,0,9.55-3.58,11.81-6.9Z"/><path class="cls-2" d="M31.87,306.29c-.16-.06-.34-.11-.51-.17,2.28-.94,4.09-2.16,5.37-3.73,1.51-1.84,2.27-4.05,2.27-6.65,0-4.7-1.82-8.22-5.47-10.54-3.65-2.32-8.83-3.49-15.53-3.49-2.76,0-5.45.14-8.07.4-2.62.27-4.85.73-6.69,1.38-.97.32-1.76.78-2.35,1.38-.6.59-.89,1.41-.89,2.43v38.76c0,2.59,1.4,4.41,4.22,5.43,1.4.49,2.96.86,4.66,1.13,1.7.27,3.38.46,5.03.57,1.65.11,3.12.16,4.42.16,7.19,0,12.73-1.27,16.62-3.81,3.89-2.54,5.84-6.43,5.84-11.68,0-2.76-.74-5.11-2.23-7.05-1.49-1.95-3.72-3.46-6.69-4.54ZM14.84,291.25c1.14-.08,2.22-.12,3.24-.12,2.86,0,5.01.49,6.45,1.46,1.43.97,2.15,2.35,2.15,4.13,0,1.89-.62,3.35-1.87,4.38-1.24,1.03-3.16,1.54-5.76,1.54h-7.05v-11.03c.76-.16,1.7-.28,2.84-.37ZM25.66,322.22c-1.65,1.05-3.83,1.58-6.53,1.58-1.19,0-2.45-.05-3.77-.16-1.33-.11-2.45-.27-3.37-.49v-11.76h7.7c2.81,0,4.92.49,6.32,1.46,1.41.97,2.11,2.49,2.11,4.54,0,2.16-.82,3.77-2.47,4.82Z"/><path class="cls-2" d="M80.55,284.52c-4.14-1.87-8.99-2.8-14.55-2.8-2.06,0-4.33.11-6.81.32-2.49.22-4.81.68-6.97,1.38-.97.38-1.76.85-2.35,1.42-.6.57-.89,1.39-.89,2.47v38.76c0,2.59,1.4,4.41,4.22,5.43,2.11.76,4.46,1.26,7.05,1.5s4.78.36,6.57.36c5.4,0,10.12-.96,14.15-2.88,4.03-1.92,7.16-4.8,9.41-8.64,2.24-3.84,3.37-8.68,3.37-14.51s-1.16-10.57-3.49-14.35c-2.32-3.78-5.55-6.61-9.69-8.47ZM77.15,319.34c-2.57,2.65-5.99,3.97-10.26,3.97-.92,0-1.89-.04-2.92-.12-1.03-.08-1.95-.2-2.76-.36v-30.73c.92-.11,1.82-.2,2.72-.28.89-.08,1.82-.12,2.8-.12,2.81,0,5.28.58,7.42,1.74,2.13,1.16,3.81,2.91,5.03,5.23,1.22,2.32,1.82,5.3,1.82,8.92,0,5.19-1.28,9.11-3.85,11.76Z"/><path class="cls-2" d="M137.6,302.07l-4.46-1.38c-1.73-.54-3.03-1.15-3.89-1.82-.86-.67-1.3-1.55-1.3-2.63,0-1.35.65-2.44,1.95-3.28,1.3-.84,3.24-1.26,5.84-1.26s4.76.31,6.81.93c2.05.62,3.7,1.37,4.95,2.23.86-.65,1.58-1.42,2.15-2.31.57-.89.85-1.96.85-3.2,0-1.67-.69-3.09-2.07-4.26-1.38-1.16-3.27-2.04-5.68-2.63-2.41-.59-5.15-.89-8.23-.89-6.05,0-10.78,1.32-14.19,3.97-3.41,2.65-5.11,6.22-5.11,10.7,0,2.92.61,5.32,1.82,7.22,1.22,1.89,2.95,3.43,5.19,4.62,2.24,1.19,4.82,2.27,7.74,3.24l4.3,1.38c1.95.59,3.42,1.31,4.42,2.15,1,.84,1.5,1.93,1.5,3.28,0,1.46-.64,2.72-1.91,3.77-1.27,1.05-3.36,1.58-6.28,1.58-2.76,0-5.23-.47-7.42-1.42-2.19-.95-4.01-2.01-5.47-3.2-1.03.49-1.96,1.23-2.8,2.23-.84,1-1.26,2.2-1.26,3.61,0,1.78.77,3.35,2.31,4.7,1.54,1.35,3.61,2.38,6.2,3.08,2.59.7,5.54,1.05,8.84,1.05,6.65,0,11.73-1.42,15.24-4.26,3.51-2.84,5.27-6.53,5.27-11.07,0-4.22-1.32-7.58-3.97-10.1-2.65-2.51-6.43-4.53-11.35-6.04Z"/><path class="cls-2" d="M196.62,282.21c-1.08,0-2.16.08-3.24.24-1.08.16-1.92.3-2.51.41v19.7h-17.92v-14.51c0-2.27-.51-3.81-1.54-4.62-1.03-.81-2.73-1.22-5.11-1.22-1.03,0-2.1.08-3.2.24-1.11.16-1.93.3-2.47.41v44.03c0,2.16.5,3.68,1.5,4.54,1,.86,2.72,1.3,5.15,1.3,1.14,0,2.24-.07,3.32-.2,1.08-.14,1.87-.28,2.35-.45v-19.7h17.92v14.51c0,2.16.5,3.68,1.5,4.54,1,.86,2.72,1.3,5.15,1.3,1.14,0,2.24-.07,3.32-.2,1.08-.14,1.89-.28,2.43-.45v-43.95c0-2.27-.53-3.82-1.58-4.66-1.05-.84-2.74-1.26-5.07-1.26Z"/><path class="cls-2" d="M219.73,282.21c-1.08,0-2.18.08-3.28.24-1.11.16-1.93.3-2.47.41v44.03c0,2.16.5,3.68,1.5,4.54,1,.86,2.72,1.3,5.15,1.3,1.14,0,2.24-.07,3.32-.2,1.08-.14,1.87-.28,2.35-.45v-44.03c0-2.27-.51-3.81-1.54-4.62-1.03-.81-2.7-1.22-5.03-1.22Z"/><path class="cls-2" d="M270.04,286.38c-3.76-3.11-9.28-4.66-16.58-4.66-2,0-4.24.14-6.73.4-2.49.27-4.62.73-6.41,1.38-.97.32-1.76.78-2.35,1.38-.6.59-.89,1.41-.89,2.43v39.57c0,2.16.5,3.68,1.5,4.54,1,.86,2.72,1.3,5.15,1.3,1.14,0,2.24-.07,3.32-.2,1.08-.14,1.87-.28,2.35-.45v-15.73h5.6c4.32,0,8.03-.72,11.11-2.15,3.08-1.43,5.45-3.45,7.09-6.04,1.65-2.59,2.47-5.62,2.47-9.08,0-5.35-1.88-9.58-5.64-12.69ZM260.72,304.67c-1.6,1.3-3.77,1.95-6.53,1.95h-4.87v-14.6c.76-.11,1.53-.19,2.31-.24.78-.05,1.66-.08,2.64-.08,2.87,0,5.05.62,6.57,1.86,1.51,1.24,2.27,3.08,2.27,5.51s-.8,4.3-2.39,5.59Z"/><path class="cls-2" d="M336.12,317.6c-.24-3-.5-6.08-.77-9.24-.27-3.16-.54-6.19-.81-9.08-.27-2.89-.53-5.45-.77-7.66-.24-2.22-.47-3.84-.69-4.87-.27-1.35-1.12-2.36-2.55-3.04-1.43-.67-3.31-1.01-5.64-1.01-1.3,0-2.53.12-3.69.37-1.16.24-2.12.58-2.88,1.01-1.14,3.03-2.5,6.81-4.09,11.35-1.6,4.54-3.15,9.19-4.66,13.95h-.41c-.76-2.11-1.58-4.47-2.47-7.09-.89-2.62-1.8-5.22-2.72-7.78-.92-2.57-1.78-4.82-2.59-6.77-.65-1.78-1.72-3.07-3.2-3.85-1.49-.78-3.45-1.18-5.88-1.18-2.27,0-4.05.34-5.35,1.01-1.3.68-2.16,1.34-2.59,1.99-.22,2.81-.45,5.88-.69,9.2-.24,3.32-.46,6.69-.65,10.09-.19,3.41-.38,6.64-.57,9.69-.19,3.06-.35,5.76-.49,8.11-.14,2.35-.2,4.12-.2,5.31,0,1.73.58,2.95,1.74,3.65,1.16.7,2.77,1.05,4.82,1.05.97,0,1.96-.11,2.96-.32,1-.22,1.8-.41,2.39-.57.22-3.3.38-6.32.49-9.08.11-2.76.19-5.47.24-8.15.05-2.68.13-5.42.24-8.23.11-2.81.24-5.92.4-9.32h.41c.7,2.49,1.69,5.43,2.96,8.84,1.27,3.41,2.82,7.68,4.66,12.81.32,1.03,1.05,1.76,2.19,2.19,1.14.43,2.54.65,4.22.65,1.3,0,2.44-.16,3.45-.49,1-.32,1.8-.73,2.39-1.22,1.89-5.57,3.47-10.12,4.74-13.66,1.27-3.54,2.26-6.47,2.96-8.8h.4c.11,2.27.2,4.99.28,8.15.08,3.16.2,6.65.37,10.46.16,3.81.38,7.82.65,12.04.11,1.84.77,3.08,1.99,3.73,1.22.65,2.69.97,4.42.97,1.35,0,2.47-.12,3.36-.36s1.74-.61,2.55-1.1c-.05-1.4-.16-3.3-.32-5.68-.16-2.38-.36-5.07-.61-8.07Z"/><path class="cls-2" d="M382.87,308.24c-1.24-4.11-2.47-8.04-3.69-11.8-1.22-3.76-2.34-7.07-3.36-9.93-.49-1.46-1.65-2.53-3.49-3.2-1.84-.68-3.92-1.01-6.24-1.01-1.62,0-3.26.2-4.91.61-1.65.41-2.85.85-3.61,1.34-.6,1.46-1.37,3.49-2.31,6.08-.95,2.59-1.97,5.43-3.08,8.51-1.11,3.08-2.19,6.2-3.24,9.37-1.05,3.16-2.03,6.09-2.92,8.8-.89,2.7-1.58,4.95-2.07,6.73-.27.92-.5,1.73-.69,2.43-.19.7-.28,1.38-.28,2.03,0,1.57.59,2.76,1.78,3.57,1.19.81,2.92,1.22,5.19,1.22,1.03,0,1.92-.1,2.68-.28.76-.19,1.43-.37,2.03-.53.27-.86.54-1.78.81-2.76s.57-2,.89-3.08c.33-1.08.63-2.19.93-3.32.16-.61.32-1.2.49-1.78h16.31l1.97,6.89c.49,1.62,1.19,2.84,2.11,3.65.92.81,2.49,1.22,4.7,1.22,1.57,0,2.92-.23,4.05-.69,1.13-.46,2-1.01,2.59-1.66-.86-3.08-1.88-6.55-3.04-10.42-1.16-3.86-2.36-7.85-3.61-11.96ZM361.86,305.6c.76-2.3,1.5-4.5,2.23-6.61.73-2.11,1.36-4.03,1.91-5.76h.49c.49,1.57,1.03,3.36,1.62,5.39.59,2.03,1.24,4.18,1.95,6.45.65,2.12,1.28,4.31,1.89,6.57h-12.01c.63-2,1.26-4.01,1.93-6.04Z"/><path class="cls-2" d="M431.15,320.07c-1.22-1.57-2.49-3.19-3.81-4.87-.53-.67-1.03-1.37-1.55-2.05,2.78-1.41,5.01-3.29,6.65-5.69,1.76-2.57,2.63-5.47,2.63-8.72,0-5.24-1.84-9.39-5.51-12.45-3.68-3.05-9.16-4.58-16.46-4.58-2.59,0-5.1.14-7.5.4-2.41.27-4.5.73-6.28,1.38-.97.32-1.76.78-2.35,1.38-.6.59-.89,1.41-.89,2.43v39.57c0,2.16.5,3.68,1.5,4.54s2.72,1.3,5.15,1.3c1.14,0,2.24-.07,3.32-.2,1.08-.14,1.87-.28,2.35-.45v-16.46h5.95l8.07,12.4c.92,1.46,1.91,2.64,2.96,3.53,1.05.89,2.58,1.34,4.58,1.34,1.57,0,2.97-.45,4.22-1.34,1.24-.89,2.11-2.15,2.59-3.77-.6-.92-1.38-2.04-2.35-3.36-.97-1.32-2.07-2.77-3.28-4.34ZM408.32,292.1c.7-.16,1.43-.27,2.19-.32.76-.05,1.59-.08,2.51-.08,3.24,0,5.65.61,7.22,1.82,1.57,1.22,2.35,2.99,2.35,5.31s-.82,4.18-2.47,5.39c-1.65,1.22-3.83,1.82-6.53,1.82h-5.27v-13.95Z"/><path class="cls-2" d="M479.59,285.05c-.27-.86-.57-1.54-.89-2.03h-35.51c-1.3,0-2.34.4-3.12,1.22-.78.81-1.18,2.11-1.18,3.89,0,.97.12,1.89.37,2.76.24.86.55,1.54.93,2.03h12.89v33.97c0,2.16.5,3.68,1.5,4.54,1,.86,2.72,1.3,5.15,1.3,1.14,0,2.24-.07,3.32-.2,1.08-.14,1.89-.28,2.43-.45v-39.16h10.14c1.35,0,2.42-.42,3.2-1.26.78-.84,1.18-2.12,1.18-3.85,0-.97-.14-1.89-.41-2.76Z"/><path class="cls-2" d="M69.57,372.86c-.09-.1-.21-.15-.36-.15h-.47c-.12,0-.28-.03-.46-.09-.19-.06-.42-.16-.7-.32-.28-.15-.61-.36-1.01-.62-.39-.26-.86-.59-1.4-.98.37-.54.71-1.11,1.02-1.73.31-.62.57-1.26.78-1.94.21-.68.37-1.37.47-2.08s.16-1.41.16-2.11v-.7c0-.19-.04-.35-.13-.47-.09-.12-.23-.22-.44-.29-.21-.07-.49-.12-.85-.14-.36-.02-.8-.03-1.34-.03-.57,0-1.04.02-1.4.05-.36.04-.64.09-.83.16-.19.07-.32.17-.38.28-.06.12-.09.25-.09.41v.67c0,.42-.03.85-.1,1.28-.07.44-.16.86-.28,1.28-.12.42-.25.82-.42,1.2-.16.38-.34.71-.54,1-.53-.42-1.07-.88-1.62-1.37-.56-.49-1.11-.99-1.66-1.49-.55-.5-1.08-1-1.6-1.5-.52-.5-.98-.98-1.4-1.43,1.28-.62,2.4-1.24,3.36-1.86.96-.62,1.76-1.26,2.4-1.93.64-.67,1.12-1.37,1.44-2.11.32-.74.48-1.55.48-2.42,0-.97-.19-1.85-.56-2.62-.37-.78-.93-1.43-1.69-1.96-.76-.53-1.72-.94-2.9-1.23-1.17-.29-2.57-.44-4.19-.44-1.78,0-3.3.19-4.57.58-1.27.38-2.31.9-3.13,1.56-.82.65-1.42,1.42-1.81,2.32-.39.89-.58,1.85-.58,2.86,0,.48.07.96.2,1.45.13.49.33,1,.6,1.53.27.54.61,1.1,1.02,1.69.41.59.89,1.21,1.45,1.88-.99.55-1.86,1.12-2.61,1.7-.75.58-1.38,1.19-1.89,1.83-.51.64-.89,1.32-1.15,2.04-.25.72-.38,1.48-.38,2.3,0,.96.14,1.83.42,2.62s.66,1.49,1.16,2.11c.49.62,1.09,1.15,1.78,1.6.7.45,1.46.82,2.31,1.12.84.3,1.74.52,2.7.66s1.94.22,2.94.22,1.98-.06,2.87-.2c.9-.13,1.77-.32,2.61-.56.84-.25,1.65-.56,2.42-.93.77-.37,1.52-.79,2.25-1.25.83.58,1.57,1.06,2.2,1.42.63.37,1.19.67,1.67.89.48.23.9.38,1.26.46.36.08.71.12,1.05.12.43,0,.8-.04,1.11-.12s.53-.17.66-.26c.13-.09.22-.21.28-.36.05-.15.09-.37.12-.67.02-.31.04-.73.04-1.26,0-.51-.02-.89-.07-1.15-.05-.26-.12-.44-.21-.54ZM49.11,353.15c.14-.34.36-.64.65-.89s.67-.45,1.12-.59c.46-.14,1.01-.21,1.66-.21.59,0,1.1.07,1.53.2.43.13.8.31,1.09.53.29.23.51.49.65.79.14.3.21.63.21.98,0,.39-.08.77-.23,1.14-.15.37-.42.74-.79,1.11-.37.37-.86.75-1.47,1.14-.61.39-1.37.82-2.28,1.28-.37-.46-.7-.9-1-1.3s-.54-.78-.73-1.13c-.19-.36-.34-.7-.45-1.02-.11-.33-.16-.64-.16-.95,0-.39.07-.76.21-1.1ZM55.82,371.96c-.39.2-.81.36-1.25.5-.44.14-.89.25-1.34.33-.46.08-.92.12-1.38.12-.9,0-1.69-.11-2.38-.32-.69-.21-1.26-.5-1.73-.88-.46-.38-.82-.83-1.07-1.35-.25-.52-.37-1.1-.37-1.72,0-.38.05-.75.16-1.11s.28-.72.51-1.07.53-.69.89-1.03c.36-.34.81-.67,1.36-.99.48.52,1.02,1.08,1.63,1.66.61.59,1.25,1.18,1.91,1.77.66.59,1.35,1.19,2.05,1.77.7.59,1.4,1.14,2.1,1.66-.34.23-.71.45-1.1.64Z"/><path class="cls-2" d="M108.06,350.51c-.21-.2-.58-.44-1.1-.72-.53-.28-1.19-.53-1.98-.77-.8-.24-1.73-.44-2.79-.61-1.07-.17-2.25-.25-3.55-.25-2.36,0-4.51.34-6.43,1.02-1.92.68-3.57,1.66-4.93,2.95-1.36,1.28-2.41,2.84-3.15,4.68-.74,1.84-1.11,3.91-1.11,6.21s.35,4.23,1.04,5.99c.7,1.76,1.7,3.26,3.01,4.48,1.31,1.23,2.92,2.16,4.81,2.81,1.89.65,4.04.97,6.43.97.82,0,1.63-.04,2.44-.11.81-.07,1.62-.18,2.41-.33.8-.15,1.56-.32,2.31-.52s1.36-.4,1.87-.59c.5-.19.83-.45,1-.77.16-.33.24-.71.24-1.14v-11.21c0-.29-.04-.55-.12-.77-.08-.23-.19-.42-.34-.58-.15-.16-.32-.28-.51-.36-.19-.08-.41-.12-.66-.12h-10.13c-.14,0-.26.04-.37.12s-.2.2-.28.37-.14.39-.17.66c-.04.28-.06.62-.06,1.02,0,.78.08,1.34.23,1.66.15.33.37.49.65.49h5.68v6.53c-.57.29-1.19.51-1.85.65-.66.15-1.34.22-2.02.22-1.39,0-2.66-.21-3.81-.63-1.15-.42-2.14-1.04-2.95-1.87-.82-.83-1.46-1.85-1.91-3.08-.46-1.23-.68-2.64-.68-4.25,0-1.47.22-2.81.67-4.02.45-1.21,1.09-2.25,1.92-3.11.83-.86,1.84-1.53,3.01-2,1.17-.47,2.49-.71,3.94-.71,1.36,0,2.55.13,3.58.39,1.03.26,1.91.54,2.65.85.74.3,1.34.59,1.78.85.45.26.77.39.97.39.14,0,.26-.04.36-.11.1-.07.19-.2.26-.38.07-.18.12-.42.16-.73.04-.3.06-.67.06-1.09,0-.73-.05-1.27-.14-1.64-.09-.37-.24-.66-.45-.86Z"/><path class="cls-2" d="M130.6,372.59c-.08-.18-.17-.31-.29-.39-.12-.08-.25-.12-.41-.12h-9.43v-22.66c0-.15-.05-.28-.15-.39-.1-.12-.27-.21-.5-.28-.23-.07-.54-.13-.93-.17-.39-.05-.88-.07-1.48-.07s-1.08.02-1.47.07c-.39.04-.71.1-.94.17-.23.07-.4.17-.5.28-.1.12-.15.25-.15.39v25.57c0,.64.17,1.1.52,1.38.35.28.78.42,1.29.42h13.74c.15,0,.29-.04.41-.13.12-.09.21-.23.29-.42.08-.2.14-.44.17-.74.04-.3.06-.66.06-1.1s-.02-.8-.06-1.1c-.04-.3-.1-.54-.17-.72Z"/><path class="cls-2" d="M156.56,351.6c-1.17-1.18-2.62-2.05-4.36-2.61-1.74-.57-3.74-.85-6.01-.85s-4.47.34-6.27,1.02c-1.8.68-3.31,1.66-4.53,2.94-1.22,1.28-2.14,2.83-2.76,4.65-.62,1.82-.93,3.87-.93,6.15,0,2.48.29,4.63.87,6.44.58,1.81,1.45,3.31,2.61,4.48,1.16,1.17,2.61,2.05,4.35,2.62,1.74.57,3.77.86,6.11.86s4.45-.34,6.25-1.01c1.8-.67,3.31-1.65,4.53-2.94,1.22-1.28,2.14-2.85,2.76-4.69.62-1.84.93-3.93.93-6.27s-.3-4.55-.89-6.34c-.59-1.79-1.48-3.28-2.64-4.45ZM153.32,366.52c-.25,1.2-.69,2.25-1.31,3.14s-1.43,1.61-2.43,2.13c-1,.52-2.26.78-3.75.78s-2.74-.23-3.73-.69c-.99-.46-1.78-1.12-2.36-1.99-.59-.87-1-1.92-1.25-3.15-.25-1.23-.37-2.61-.37-4.15,0-1.32.13-2.57.38-3.75.26-1.18.69-2.22,1.31-3.1.62-.88,1.43-1.59,2.43-2.12,1-.53,2.26-.79,3.75-.79s2.72.24,3.71.71c.99.47,1.78,1.14,2.38,2,.6.86,1.02,1.9,1.26,3.11s.37,2.56.37,4.04c0,1.35-.13,2.62-.38,3.82Z"/><path class="cls-2" d="M184.73,363.75c-.53-.57-1.16-1.04-1.88-1.4-.72-.36-1.5-.62-2.35-.76.66-.23,1.26-.54,1.77-.91.52-.38.95-.81,1.31-1.31.36-.49.63-1.04.81-1.64.19-.6.28-1.24.28-1.93,0-1.22-.23-2.28-.7-3.18-.46-.9-1.13-1.64-2.01-2.23-.87-.59-1.95-1.03-3.22-1.32-1.28-.29-2.83-.44-4.67-.44h-7.53c-.51,0-.94.14-1.29.42-.35.28-.52.74-.52,1.38v24.55c0,.64.17,1.1.52,1.38.35.28.78.42,1.29.42h7.97c1.21,0,2.3-.07,3.28-.21.98-.14,1.9-.35,2.77-.64.87-.29,1.66-.66,2.38-1.11.72-.45,1.34-.99,1.85-1.61.52-.62.92-1.34,1.22-2.16.29-.81.44-1.72.44-2.72s-.15-1.82-.46-2.59c-.31-.77-.73-1.44-1.26-2.01ZM170.72,352.93h3.08c.94,0,1.7.08,2.26.24.56.16,1.03.39,1.4.69.37.3.65.67.83,1.12.19.45.28.96.28,1.53,0,.51-.08.99-.25,1.45-.17.46-.43.86-.78,1.2-.35.34-.78.61-1.31.81-.53.2-1.23.29-2.11.29h-3.41v-7.31ZM179.77,370.22c-.24.49-.57.89-1,1.22-.42.33-.93.57-1.51.74-.58.17-1.29.25-2.14.25h-4.4v-8.01h3.62c1.11,0,2.02.09,2.71.28.7.19,1.27.46,1.71.8.45.35.79.78,1.02,1.3s.35,1.1.35,1.75-.12,1.18-.36,1.67Z"/><path class="cls-2" d="M205.7,349.7c-.09-.28-.2-.49-.34-.65-.13-.16-.35-.28-.65-.36-.3-.08-.72-.13-1.26-.15-.54-.02-1.27-.03-2.18-.03-.79,0-1.42.01-1.9.03-.48.02-.85.07-1.12.15-.27.08-.47.2-.59.35-.12.15-.23.35-.32.6l-9.25,24.99c-.19.51-.3.91-.35,1.22-.05.3,0,.54.16.71.15.17.43.27.83.32.4.04.96.06,1.67.06.66,0,1.2-.02,1.61-.04.41-.03.73-.08.95-.16.22-.08.39-.19.49-.33.1-.14.18-.31.24-.51l1.9-5.51h11.26l2.02,5.66c.06.19.14.34.23.46s.25.21.49.27c.23.07.57.11,1.01.13.44.02,1.05.03,1.84.03s1.35-.02,1.78-.05c.43-.04.73-.13.9-.28.17-.15.23-.38.19-.68-.05-.31-.16-.72-.35-1.24l-9.27-24.96ZM196.94,365.98l4.24-11.97h.02l4.24,11.97h-8.51Z"/><path class="cls-2" d="M234.94,372.59c-.08-.18-.17-.31-.29-.39-.12-.08-.25-.12-.41-.12h-9.43v-22.66c0-.15-.05-.28-.15-.39-.1-.12-.27-.21-.5-.28-.23-.07-.54-.13-.93-.17-.39-.05-.88-.07-1.48-.07s-1.08.02-1.47.07c-.39.04-.71.1-.94.17-.23.07-.4.17-.5.28-.1.12-.15.25-.15.39v25.57c0,.64.17,1.1.52,1.38.35.28.78.42,1.29.42h13.74c.15,0,.29-.04.41-.13.12-.09.21-.23.29-.42.08-.2.14-.44.17-.74.04-.3.06-.66.06-1.1s-.02-.8-.06-1.1c-.04-.3-.1-.54-.17-.72Z"/><path class="cls-2" d="M264.79,372.59c-.08-.18-.17-.31-.29-.39-.12-.08-.25-.12-.41-.12h-9.43v-22.66c0-.15-.05-.28-.15-.39s-.27-.21-.5-.28c-.23-.07-.54-.13-.93-.17-.39-.05-.88-.07-1.48-.07s-1.08.02-1.47.07c-.39.04-.71.1-.94.17-.23.07-.4.17-.5.28s-.15.25-.15.39v25.57c0,.64.17,1.1.52,1.38.35.28.78.42,1.29.42h13.74c.16,0,.29-.04.41-.13.12-.09.21-.23.29-.42.08-.2.14-.44.17-.74s.06-.66.06-1.1-.02-.8-.06-1.1-.1-.54-.17-.72Z"/><path class="cls-2" d="M290.75,351.6c-1.17-1.18-2.62-2.05-4.36-2.61-1.74-.57-3.74-.85-6.01-.85s-4.47.34-6.27,1.02c-1.8.68-3.31,1.66-4.53,2.94-1.22,1.28-2.14,2.83-2.76,4.65-.62,1.82-.93,3.87-.93,6.15,0,2.48.29,4.63.87,6.44.58,1.81,1.45,3.31,2.61,4.48,1.16,1.17,2.61,2.05,4.35,2.62,1.74.57,3.77.86,6.11.86s4.45-.34,6.25-1.01c1.8-.67,3.31-1.65,4.53-2.94,1.22-1.28,2.14-2.85,2.76-4.69.62-1.84.93-3.93.93-6.27s-.3-4.55-.89-6.34c-.59-1.79-1.48-3.28-2.64-4.45ZM287.5,366.52c-.25,1.2-.69,2.25-1.31,3.14-.62.9-1.43,1.61-2.43,2.13-1.01.52-2.26.78-3.76.78s-2.74-.23-3.73-.69c-.99-.46-1.78-1.12-2.36-1.99-.59-.87-1-1.92-1.25-3.15-.25-1.23-.37-2.61-.37-4.15,0-1.32.13-2.57.38-3.75.26-1.18.69-2.22,1.31-3.1.62-.88,1.43-1.59,2.43-2.12,1-.53,2.26-.79,3.75-.79s2.72.24,3.71.71c.99.47,1.78,1.14,2.38,2,.59.86,1.02,1.9,1.26,3.11.25,1.21.37,2.56.37,4.04,0,1.35-.13,2.62-.38,3.82Z"/><path class="cls-2" d="M322.39,350.51c-.21-.2-.58-.44-1.1-.72-.53-.28-1.19-.53-1.98-.77-.8-.24-1.73-.44-2.79-.61-1.07-.17-2.25-.25-3.54-.25-2.37,0-4.51.34-6.43,1.02-1.92.68-3.57,1.66-4.93,2.95-1.36,1.28-2.41,2.84-3.15,4.68s-1.11,3.91-1.11,6.21.35,4.23,1.04,5.99c.7,1.76,1.7,3.26,3.01,4.48,1.31,1.23,2.92,2.16,4.81,2.81,1.89.65,4.04.97,6.43.97.82,0,1.64-.04,2.45-.11.81-.07,1.61-.18,2.41-.33s1.56-.32,2.31-.52,1.36-.4,1.87-.59c.5-.19.83-.45,1-.77.16-.33.24-.71.24-1.14v-11.21c0-.29-.04-.55-.12-.77-.08-.23-.19-.42-.34-.58-.15-.16-.32-.28-.51-.36s-.41-.12-.66-.12h-10.13c-.14,0-.26.04-.37.12-.11.08-.2.2-.28.37-.08.17-.13.39-.17.66-.04.28-.06.62-.06,1.02,0,.78.08,1.34.23,1.66.16.33.37.49.65.49h5.68v6.53c-.57.29-1.19.51-1.85.65-.66.15-1.34.22-2.02.22-1.39,0-2.66-.21-3.81-.63-1.15-.42-2.14-1.04-2.95-1.87-.82-.83-1.46-1.85-1.91-3.08-.46-1.23-.68-2.64-.68-4.25,0-1.47.22-2.81.67-4.02.45-1.21,1.09-2.25,1.92-3.11.83-.86,1.84-1.53,3.01-2,1.17-.47,2.49-.71,3.94-.71,1.36,0,2.55.13,3.58.39,1.03.26,1.91.54,2.65.85.74.3,1.34.59,1.78.85.45.26.77.39.97.39.14,0,.26-.04.36-.11s.19-.2.26-.38c.07-.18.12-.42.16-.73.04-.3.06-.67.06-1.09,0-.73-.05-1.27-.14-1.64-.09-.37-.24-.66-.45-.86Z"/><path class="cls-2" d="M334.17,348.75c-.23-.07-.54-.13-.93-.17-.39-.05-.88-.07-1.48-.07s-1.07.02-1.46.07c-.39.04-.7.1-.94.17-.24.07-.41.17-.51.28s-.15.25-.15.39v26.6c0,.15.05.28.15.39s.27.21.5.28c.23.07.55.13.94.17.39.04.88.06,1.47.06s1.1-.02,1.48-.06c.39-.05.7-.1.93-.17.23-.07.4-.17.5-.28s.15-.25.15-.39v-26.6c0-.15-.05-.28-.15-.39s-.27-.21-.5-.28Z"/><path class="cls-2" d="M356.64,363.23c-.6-.62-1.29-1.15-2.06-1.59-.77-.44-1.56-.84-2.36-1.19-.8-.35-1.59-.68-2.36-.99-.77-.31-1.46-.65-2.07-1-.61-.36-1.1-.76-1.46-1.22-.36-.46-.55-1-.55-1.62,0-.42.08-.82.24-1.2.16-.38.41-.7.74-.97.33-.27.75-.48,1.24-.63.49-.15,1.07-.23,1.74-.23.85,0,1.63.1,2.34.29.71.2,1.34.41,1.88.65.54.24,1,.46,1.37.66.37.2.64.3.81.3s.3-.04.4-.13.18-.23.23-.41c.05-.19.09-.43.12-.72.02-.29.03-.65.03-1.07,0-.38,0-.69-.02-.95s-.04-.47-.08-.63-.08-.3-.14-.4-.16-.23-.31-.37c-.15-.14-.47-.33-.95-.54s-1.03-.41-1.65-.59c-.62-.17-1.28-.31-1.99-.41-.71-.1-1.42-.15-2.13-.15-1.38,0-2.68.17-3.91.5-1.23.33-2.29.84-3.2,1.51-.9.67-1.62,1.52-2.15,2.55-.53,1.02-.8,2.21-.8,3.56,0,1.18.19,2.18.56,3.03.37.84.86,1.57,1.45,2.19.59.62,1.27,1.15,2.03,1.59.76.44,1.54.84,2.34,1.19s1.58.68,2.34.99c.76.31,1.43.65,2.03,1,.59.36,1.08.76,1.45,1.22.37.46.56,1.01.56,1.64,0,.55-.11,1.05-.33,1.5-.22.45-.53.83-.94,1.13-.41.3-.91.54-1.49.71-.59.17-1.25.25-1.99.25-1.13,0-2.12-.12-2.98-.36-.86-.24-1.6-.5-2.21-.79-.62-.29-1.12-.56-1.52-.79-.39-.24-.7-.36-.92-.36-.15,0-.29.04-.4.12-.12.08-.21.21-.28.4-.07.19-.12.44-.15.74-.03.3-.04.68-.04,1.13,0,.67.04,1.18.13,1.53.08.36.23.63.43.82s.53.41.98.65c.46.25,1.02.48,1.7.71.68.23,1.46.42,2.35.58.89.16,1.85.24,2.88.24,1.53,0,2.97-.19,4.31-.57,1.34-.38,2.52-.94,3.52-1.69,1-.75,1.8-1.68,2.39-2.8.59-1.12.88-2.42.88-3.9,0-1.13-.19-2.11-.56-2.95-.37-.83-.86-1.56-1.46-2.18Z"/><path class="cls-2" d="M382.1,349.15c-.08-.18-.17-.31-.29-.39-.12-.08-.24-.12-.38-.12h-21.14c-.16,0-.29.04-.39.12-.11.08-.2.21-.28.39s-.14.42-.17.73c-.04.3-.06.67-.06,1.11s.02.78.06,1.08.1.54.17.72.17.32.28.4.24.13.39.13h7.51v22.7c0,.15.05.28.15.39s.27.21.5.28c.23.07.54.13.94.17.39.04.88.06,1.47.06s1.08-.02,1.47-.06c.39-.05.71-.1.94-.17.23-.07.4-.17.5-.28s.15-.25.15-.39v-22.7h7.51c.14,0,.27-.04.38-.13.12-.09.21-.22.29-.4s.14-.42.17-.72.06-.66.06-1.08-.02-.81-.06-1.11c-.04-.31-.1-.55-.17-.73Z"/><path class="cls-2" d="M390.87,348.75c-.23-.07-.54-.13-.93-.17-.39-.05-.88-.07-1.48-.07s-1.07.02-1.46.07c-.39.04-.7.1-.94.17-.24.07-.41.17-.51.28s-.15.25-.15.39v26.6c0,.15.05.28.15.39s.27.21.5.28c.23.07.55.13.94.17.39.04.88.06,1.47.06s1.1-.02,1.48-.06c.39-.05.7-.1.93-.17.23-.07.4-.17.5-.28s.15-.25.15-.39v-26.6c0-.15-.05-.28-.15-.39s-.27-.21-.5-.28Z"/><path class="cls-2" d="M418.13,370.55c-.06-.17-.14-.29-.23-.35-.09-.06-.22-.09-.37-.09-.2,0-.48.12-.85.35-.36.23-.83.49-1.39.78-.56.29-1.24.56-2.03.8-.79.24-1.72.36-2.8.36-1.19,0-2.26-.19-3.21-.58-.95-.38-1.76-.97-2.43-1.75-.67-.78-1.19-1.78-1.55-2.99-.36-1.21-.54-2.64-.54-4.3,0-1.51.17-2.87.51-4.07.34-1.2.84-2.23,1.5-3.08.66-.85,1.45-1.5,2.39-1.96.93-.46,2-.69,3.19-.69,1.08,0,2.01.13,2.79.38.78.25,1.45.54,2.02.85.56.31,1.02.6,1.38.85.36.25.65.38.88.38.14,0,.26-.05.37-.13.11-.09.2-.22.28-.41.08-.19.13-.44.16-.74.03-.3.05-.68.05-1.11,0-.41-.01-.75-.04-1.02-.02-.28-.06-.51-.1-.72-.05-.2-.11-.37-.19-.5s-.22-.29-.43-.49-.58-.43-1.1-.71c-.53-.28-1.12-.52-1.77-.73-.66-.21-1.37-.38-2.14-.51-.77-.13-1.58-.2-2.41-.2-2.06,0-3.94.33-5.64.98-1.71.65-3.17,1.61-4.39,2.87-1.22,1.26-2.17,2.82-2.85,4.68-.68,1.86-1.02,3.98-1.02,6.38s.31,4.41.93,6.18c.62,1.77,1.51,3.25,2.66,4.43,1.16,1.18,2.57,2.07,4.22,2.67,1.65.59,3.51.89,5.56.89,1.05,0,2.03-.08,2.93-.24.9-.16,1.71-.36,2.41-.6.7-.24,1.3-.49,1.79-.75.49-.26.82-.48.98-.64s.29-.32.37-.45.14-.29.19-.47c.05-.18.08-.4.1-.65.02-.25.04-.56.04-.92,0-.52-.02-.94-.05-1.25s-.08-.56-.14-.73Z"/><path class="cls-2" d="M439.44,365.41c-.37-.83-.86-1.56-1.46-2.18-.6-.62-1.29-1.15-2.06-1.59-.77-.44-1.56-.84-2.36-1.19-.8-.35-1.59-.68-2.36-.99-.77-.31-1.46-.65-2.07-1-.61-.36-1.1-.76-1.46-1.22-.36-.46-.55-1-.55-1.62,0-.42.08-.82.24-1.2.16-.38.41-.7.74-.97.33-.27.75-.48,1.24-.63.49-.15,1.07-.23,1.74-.23.85,0,1.63.1,2.34.29.71.2,1.34.41,1.88.65.54.24,1,.46,1.37.66.37.2.64.3.81.3s.3-.04.4-.13.18-.23.23-.41c.05-.19.09-.43.12-.72.02-.29.03-.65.03-1.07,0-.38,0-.69-.02-.95-.02-.25-.04-.47-.08-.63s-.08-.3-.14-.4-.16-.23-.31-.37c-.15-.14-.47-.33-.95-.54-.48-.22-1.03-.41-1.65-.59-.62-.17-1.28-.31-1.99-.41-.71-.1-1.42-.15-2.13-.15-1.38,0-2.68.17-3.91.5-1.23.33-2.29.84-3.2,1.51-.9.67-1.62,1.52-2.15,2.55-.53,1.02-.8,2.21-.8,3.56,0,1.18.19,2.18.56,3.03.37.84.86,1.57,1.45,2.19s1.27,1.15,2.03,1.59c.76.44,1.54.84,2.34,1.19s1.58.68,2.34.99c.76.31,1.43.65,2.03,1,.59.36,1.08.76,1.45,1.22.37.46.56,1.01.56,1.64,0,.55-.11,1.05-.33,1.5-.22.45-.53.83-.94,1.13-.41.3-.91.54-1.49.71-.59.17-1.25.25-1.99.25-1.13,0-2.12-.12-2.98-.36-.86-.24-1.6-.5-2.21-.79-.62-.29-1.12-.56-1.52-.79-.39-.24-.7-.36-.92-.36-.15,0-.29.04-.4.12-.12.08-.21.21-.28.4-.07.19-.12.44-.15.74-.03.3-.04.68-.04,1.13,0,.67.04,1.18.13,1.53.08.36.23.63.43.82.2.19.53.41.98.65.46.25,1.02.48,1.7.71.68.23,1.46.42,2.35.58.89.16,1.85.24,2.88.24,1.53,0,2.97-.19,4.31-.57,1.34-.38,2.52-.94,3.52-1.69,1-.75,1.8-1.68,2.39-2.8.59-1.12.88-2.42.88-3.9,0-1.13-.19-2.11-.56-2.95Z"/></g></g></svg>