<svg xmlns="http://www.w3.org/2000/svg" version="1.1" xmlns:xlink="http://www.w3.org/1999/xlink" xmlns:svgjs="http://svgjs.dev/svgjs" width="1000" height="1000"><g clip-path="url(#SvgjsClipPath1065)"><rect width="1000" height="1000" fill="#222831"></rect><g transform="matrix(1.4,0,0,1.4,150,150)"><svg xmlns="http://www.w3.org/2000/svg" version="1.1" xmlns:xlink="http://www.w3.org/1999/xlink" xmlns:svgjs="http://svgjs.dev/svgjs" width="500" height="500"><svg xmlns="http://www.w3.org/2000/svg" xmlns:xlink="http://www.w3.org/1999/xlink" viewBox="0 0 500 500"><defs><style>.cls-1{fill:url(#linear-gradient-2);}.cls-2{fill:#222831;}.cls-3{fill:#fff;}.cls-4{fill:url(#linear-gradient-4);}.cls-5{fill:url(#linear-gradient-3);}.cls-6{isolation:isolate;}.cls-7{fill:url(#New_Gradient_Swatch_1-2);}.cls-8,.cls-9,.cls-10{mix-blend-mode:screen;}.cls-9{fill:url(#New_Gradient_Swatch_1-3);}.cls-11{fill:url(#linear-gradient);}.cls-12{fill:url(#New_Gradient_Swatch_1);}.cls-10{fill:url(#linear-gradient-5);}</style><linearGradient id="linear-gradient" x1="119.66" y1="319.37" x2="282.32" y2="319.37" gradientUnits="userSpaceOnUse"><stop offset="0" stop-color="#418ecc"></stop><stop offset="1" stop-color="#71cbd2"></stop></linearGradient><linearGradient id="linear-gradient-2" x1="89.09" y1="198.39" x2="329.34" y2="198.39" gradientUnits="userSpaceOnUse"><stop offset="0" stop-color="#ed2024"></stop><stop offset="1" stop-color="#fbb040"></stop></linearGradient><linearGradient id="linear-gradient-3" x1="39.14" y1="250" x2="410.74" y2="250" gradientUnits="userSpaceOnUse"><stop offset="0" stop-color="#0c5545"></stop><stop offset="1" stop-color="#1bb895"></stop></linearGradient><linearGradient id="New_Gradient_Swatch_1" x1="330.32" y1="357.04" x2="41.79" y2="357.04" gradientUnits="userSpaceOnUse"><stop offset="0" stop-color="#0c5545"></stop><stop offset="1" stop-color="#1bb895"></stop></linearGradient><linearGradient id="linear-gradient-4" x1="69.63" y1="281.81" x2="394.6" y2="281.81" gradientUnits="userSpaceOnUse"><stop offset="0" stop-color="#00adb5"></stop><stop offset=".41" stop-color="#00adb7"></stop><stop offset=".66" stop-color="#00adbf"></stop><stop offset=".87" stop-color="#00adce"></stop><stop offset="1" stop-color="#00addc"></stop></linearGradient><linearGradient id="linear-gradient-5" x1="364.44" y1="266.25" x2="-38.79" y2="266.25" gradientUnits="userSpaceOnUse"><stop offset="0" stop-color="#41c5e7"></stop><stop offset="1" stop-color="#65c9d5"></stop></linearGradient><linearGradient id="New_Gradient_Swatch_1-2" x1="225.97" y1="221.12" x2="460.89" y2="221.12" xlink:href="#New_Gradient_Swatch_1"></linearGradient><linearGradient id="New_Gradient_Swatch_1-3" x1="226.51" y1="227.67" x2="460.57" y2="227.67" xlink:href="#New_Gradient_Swatch_1"></linearGradient><clipPath id="SvgjsClipPath1065"><rect width="1000" height="1000" x="0" y="0" rx="150" ry="150"></rect></clipPath></defs><g class="cls-6"><g id="Layer_1"><rect class="cls-2" x="0" y="0" width="500" height="500"></rect><g class="cls-8"><path class="cls-3" d="M208.33,465.63c-8.82,0-17.09-3.47-23.28-9.77l-107.21-109.42c-34.06-34.49-52.84-80.22-52.84-128.73,0-42.06,13.9-81.66,40.2-114.52.24-.3.4-.5.56-.7.27-.35.54-.69.82-1.03.29-.36.57-.69.86-1.02l.38-.44c1.43-1.72,2.94-3.46,4.53-5.24.13-.15.62-.67.62-.67h0c34.5-37.95,83.64-59.72,134.84-59.72h.54c78.45,0,147.56,49.75,173.04,122.72l24.8-8.46c1.5-.51,3.04-.76,4.56-.76,4.37,0,8.6,2.03,11.32,5.67,1.85,2.47,2.78,5.4,2.81,8.34.59-.02,1.18-.03,1.78-.03,3.83,0,7.42.45,10.75.98,7.58.1,18.08,1.2,24.46,4.03,10.1,4.46,15.37,15.75,12.25,26.24-3.14,10.71-14.25,19.34-35.98,27.94-5.74,2.26-18.21,6.92-38.08,14.23-5.65,5.66-20.66,20.29-36.37,32.08l25.65-9.42c1.67-.67,3.46-1.02,5.26-1.02,5.72,0,10.88,3.45,13.06,8.75,2.18,5.29.95,11.38-3.11,15.41l-62.43,61.97s-3.18,3.35-3.23,3.4l-107.26,109.4c-6.2,6.31-14.47,9.78-23.29,9.78Z"></path></g><g class="cls-8"><path class="cls-3" d="M432.75,187.74c-3.33-1.48-11.06-2.51-17.66-2.51-7.25-1.2-12.26-1.49-19.88,1.42-4.65,1.79-11.02,4.47-18.41,7.72,9.21-13.2,15.72-22.39,15.72-22.39l-34.25,11.69c-16.72-64.6-75.36-112.32-145.2-112.32-.08,0-.15.01-.23.01s-.16-.01-.25-.01c-43.72,0-83.01,18.85-110.27,48.84-.16.18-.31.35-.48.51-1.25,1.4-2.49,2.83-3.7,4.27-.35.43-.71.83-1.05,1.24-.39.48-.76.98-1.15,1.45-20.56,25.68-32.9,58.24-32.9,93.7,0,41.08,16.52,78.28,43.27,105.36l95.04,96.99c6.44,6.55,16.97,6.55,23.41,0l95.09-96.99,2.86-3.01,55.48-55.07s-.03.01-.05.03l-57.8,21.23s-1.53-.76-4.13-1.59c-1.43-.44,4.18-10.12,12.91-23.71,19.91-10.5,46.95-38.46,46.95-38.46,16.69-6.14,30.34-11.21,36.1-13.48,17.1-6.76,23.24-12.39,24.5-16.7,1.14-3.83-1.35-7.1-3.93-8.24Z"></path></g><path class="cls-11" d="M135.54,307.25l146.77,6.22c-20.44,15.84-46.12,25.24-73.98,25.24-35.04,0-66.6-14.89-88.67-38.68l15.88,7.22Z"></path><path class="cls-1" d="M329.34,217.71c0,25.32-7.77,48.83-21.07,68.25-.67-.02-1.32-.02-1.99,0-22.37.75-31.87,14.11-31.87,14.11-4.25-16.72-20.46-34.46-51.65-38.95-25.62-3.69-45.58,11.64-45.58,11.64,4.27-20.89-6.76-59.26-41.31-72.72-17.79-6.93-34.63-5.69-46.79-2.85,9.72-57.04,59.42-100.48,119.25-100.48,66.84,0,121,54.18,121,121Z"></path><path class="cls-5" d="M280.21,344.35c-21.19,12.06-45.72,18.95-71.87,18.95-80.41,0-145.59-65.18-145.59-145.59S127.93,72.11,208.34,72.11c0,0,6.19-.37,16.25.44,63.22,7.28,114.07,55.15,125.74,116.92l60.41-27.47-38.63,13.18c-18.86-72.87-85.01-126.68-163.78-126.68-.08,0-.16,0-.25,0-.1,0-.19,0-.29,0-49.31,0-93.64,21.26-124.39,55.09-.18.19-.35.38-.53.58-1.42,1.58-2.81,3.19-4.18,4.82-.39.47-.8.92-1.18,1.4-.44.54-.86,1.1-1.29,1.64-23.2,28.96-37.1,65.69-37.1,105.67,0,46.33,18.63,88.3,48.79,118.86h-.04l2.56,2.6c.04.06.1.1.14.14.18.18.37.35.57.55.81.75,1.79,1.69,2.97,2.79,1.16,1.08,2.52,2.16,4.03,3.46.77.65,1.55,1.32,2.4,2.03.89.67,1.81,1.38,2.79,2.11.96.75,1.97,1.51,3.01,2.3,1.06.77,2.2,1.51,3.36,2.3,1.16.79,2.36,1.61,3.6,2.46,1.28.77,2.6,1.55,3.95,2.38,2.66,1.71,5.63,3.23,8.68,4.88,6.18,3.15,13.02,6.34,20.56,9.01,3.72,1.44,7.67,2.56,11.69,3.84,4.05,1.08,8.18,2.24,12.47,3.09,8.54,1.81,17.49,3.21,26.66,3.76,2.28.24,4.58.24,6.91.33l3.46.14c1.1.02,2.34-.02,3.48-.02,2.18,0,4.7-.14,6.96-.28l3.44-.3,3.44-.43c18.44-2.46,36.14-9.72,50.64-19.58,3.62-2.44,7.06-5.08,10.49-7.65,3.4-2.54,6.75-5.06,9.99-7.48,6.51-4.88,12.65-9.48,18.32-13.73,20.56-15.39,34.9-26.13,37.42-28.02-2.46,1.95-16.53,13.06-36.67,29-5.55,4.39-11.57,9.15-17.94,14.19-3.19,2.52-6.45,5.12-9.8,7.75-3.34,2.64-6.73,5.39-10.39,7.99-14.52,10.43-32.46,18.4-51.47,21.43l-3.58.53-3.62.41c-2.42.22-4.62.39-7.14.47-1.2.04-2.3.1-3.58.1l-3.54-.04c-2.38-.04-4.74.02-7.08-.16-9.42-.31-18.63-1.51-27.47-3.15-4.43-.77-8.72-1.85-12.93-2.85-4.17-1.2-8.26-2.24-12.16-3.64-7.85-2.56-15.05-5.67-21.56-8.78-1.22-.63-2.42-1.24-3.6-1.85l75.77,77.3c7.26,7.4,19.14,7.4,26.4,0l107.25-109.39,3.23-3.4,44.48-45.21s-94.62,55.46-96.19,56.35l-.1.06Z"></path><path class="cls-12" d="M351.91,307.25l-83.66,74.37s-29.91,25.2-60.44,25.2h-.04c-34.43.37-60.99-10.21-60.99-10.21l-27.41-27.96c1.18.61,2.38,1.22,3.6,1.85,6.51,3.11,13.71,6.22,21.56,8.78,3.9,1.4,7.99,2.44,12.16,3.64,4.21,1,8.5,2.09,12.93,2.85,8.83,1.63,18.04,2.83,27.47,3.15,2.34.18,4.7.12,7.08.16l3.54.04c1.28,0,2.38-.06,3.58-.1,2.52-.08,4.72-.26,7.14-.47l3.62-.41,3.58-.53c19.01-3.03,36.95-11,51.47-21.43,3.66-2.6,7.04-5.35,10.39-7.99,3.34-2.64,6.61-5.23,9.8-7.75,6.37-5.04,12.4-9.8,17.94-14.19,18.26-14.44,31.52-24.93,35.67-28.21l.73-.57v-.02l.28-.2Z"></path><path class="cls-4" d="M394.6,271.04l-109.37,62.88c-3.32,2.09-9.98,5.35-13.48,7.16l-.22.12c-18.95,9.72-40.43,15.21-63.2,15.21-76.61,0-138.71-62.09-138.71-138.71,0,0,26.38-16.7,59.77-7.99,53.59,14.03,40.57,75.75,40.57,75.75,0,0,18.63-21.23,58.04-14.26,38.37,6.77,45.25,40.33,45.25,40.33,0,0,6.65-13.02,24.1-18.45,11.47-3.54,21.66-1.59,27.31.16,2.95.92,4.66,1.79,4.66,1.79l65.26-23.98Z"></path><path class="cls-10" d="M394.6,271.04l-62.56,28.98s-10.35-7.1-30.25-2.03c-18.36,4.68-30,27.31-30,27.31,0,0-11.02-34.83-45.25-43.5-45.57-11.54-68.86,27.76-68.86,27.76,0,0,12.54-38.37-10.08-73.29-22.63-34.92-77.96-18.57-77.96-18.57,0,0,26.38-16.7,59.77-7.99,53.59,14.03,40.57,75.75,40.57,75.75,0,0,18.63-21.23,58.04-14.26,38.37,6.77,45.25,40.33,45.25,40.33,0,0,6.65-13.02,24.1-18.45,11.47-3.54,21.66-1.59,27.31.16,2.95.92,4.66,1.79,4.66,1.79l65.26-23.98Z"></path><path class="cls-7" d="M460.57,189.08c-1.44,4.86-8.36,11.19-27.64,18.83-6.49,2.56-21.9,8.28-40.73,15.21l-39.98,36.93-5.33,2.2,10.23-24.12,17.33-8.52c-7.97,2.91-88.34,32.15-98.85,35.93-1.97.75-4.09.91-6.16.53l-42.1-7.73c-.53-.12-.9-.63-.83-1.18l.08-.55.16-1.1c.08-.53.55-.9,1.04-.89l17.59.47-19.2-18.65c-.37-.37-.24-.98.24-1.16l8.56-3.01c.87-.31,1.81-.33,2.7-.08,4.78,1.5,21.15,6.65,34.12,11.16,2.12.22,18.89-7.65,40.53-18.1l9.21,1.79-61.86-20.84c-.38-.13-.41-.67-.03-.82l7.04-3c.37-.16.78-.23,1.18-.2l82.28,4.86c25.38-12.16,50.52-23.43,63.65-28.47,8.59-3.29,14.24-2.96,22.41-1.61,7.46,0,16.17,1.17,19.93,2.83,2.92,1.29,5.73,4.98,4.45,9.31Z"></path><path class="cls-9" d="M460.57,189.08c-1.44,4.86-8.36,11.19-27.64,18.83-6.49,2.56-21.9,8.28-40.73,15.21l-39.98,36.93-5.33,2.2,10.23-24.12,17.33-8.52c-7.97,2.91-88.34,32.15-98.85,35.93-1.97.75-4.09.91-6.16.53l-42.1-7.73c-.53-.12-.9-.63-.83-1.18l.08-.55s42.65,7.71,44.86,7.63c2.22-.08,169.79-63.86,169.79-63.86,0,0,15.62-5.86,19.32-11.29Z"></path></g></g></svg></svg></g></g></svg>